<?xml version="1.0" encoding="utf-8"?>
<!-- Generator: Adobe Illustrator 24.2.3, SVG Export Plug-In . SVG Version: 6.00 Build 0)  -->
<svg version="1.1" xmlns="http://www.w3.org/2000/svg" xmlns:xlink="http://www.w3.org/1999/xlink" x="0px" y="0px"
	 viewBox="0 0 1049.3 897.8" style="enable-background:new 0 0 1049.3 897.8;" xml:space="preserve">
<style type="text/css">
	.st0{fill:#FFFFFF;}
	.st1{fill:none;stroke:#000000;stroke-width:0.25;stroke-miterlimit:10;}
	.st2{fill:none;stroke:#000000;stroke-miterlimit:10;}
	.st3{fill:none;stroke:#000000;stroke-linecap:square;stroke-linejoin:bevel;stroke-miterlimit:10;}
	.st4{fill:none;stroke:#000000;stroke-width:2;stroke-linecap:round;stroke-miterlimit:10;}
	.st5{fill:none;}
	.st6{fill:#FFFFFF;stroke:#000000;stroke-miterlimit:10;}
	.st7{fill:#010202;}
	.st8{fill:#020304;stroke:#000000;stroke-miterlimit:10;}
	.st9{fill:#010202;stroke:#000000;stroke-miterlimit:10;}
	.st10{stroke:#000000;stroke-miterlimit:10;}
	.st11{fill:none;stroke:#000000;stroke-width:2;stroke-linecap:round;stroke-linejoin:round;stroke-miterlimit:10;}
</style>
<g id="Calque_2">
	<rect x="1.1" y="-84.9" class="st0" width="1048.2" height="1081.8"/>
	<polyline class="st1" points="687.6,585.5 637.4,548.6 652.3,559.5 598.9,520.2 	"/>
	<line class="st1" x1="450.6" y1="653.5" x2="819.3" y2="486.3"/>
	<line class="st1" x1="1.1" y1="541.4" x2="1049.3" y2="541.4"/>
	<line class="st1" x1="1.1" y1="555.5" x2="1049.3" y2="555.5"/>
	<line class="st1" x1="584" y1="502.3" x2="835.3" y2="388.2"/>
	<line class="st1" x1="1.1" y1="456.3" x2="1049.3" y2="456.3"/>
	<line class="st1" x1="1.1" y1="470.5" x2="1049.3" y2="470.5"/>
	<path d="M687.9,455.7c-2.6-6.4-14.7-7.4-27-2.3c-12.3,5.1-20.1,14.4-17.5,20.8c1.4,3.3,5.4,5.2,10.6,5.5c-1.2-0.2-6.3-1-8.4-4.5
		c-3.2-5.3,6.7-13.7,16-17.3c10-4,30.2-7.8,22.9,9.1C687.8,463,689.3,459,687.9,455.7z"/>
</g>
<g id="Calque_1">
	<path class="st0" d="M648.4,547.7l-5.2,8.4l2.1,5.1c0,0,7.2,4.7,17.1,1.8s19.4-7.3,23.8-15.7s-6.5-10.7-6.5-10.7l-11.5,1l-10.6,3.2
		L648.4,547.7z"/>
	<path class="st0" d="M649.1,465.3l-4.4,6.6l0.9,4.4c0,0,7,5.4,16.9,2.6c9.9-2.8,16.9-4.5,21.9-12c1.4-2.2,1.8-8.3,0.5-9.8
		c-2.1-2.6-5.1-2.7-5.1-2.7l-11.5,0.9l-10.1,3.8L649.1,465.3z"/>
	<line class="st2" x1="429.1" y1="227.8" x2="565.5" y2="165.1"/>
	<path class="st2" d="M329.1,372.8"/>
	<path class="st2" d="M226.4,411"/>
	<line class="st2" x1="233.5" y1="339.6" x2="329.1" y2="295.1"/>
	<line class="st2" x1="749.5" y1="237" x2="837.3" y2="196.5"/>
	<line class="st2" x1="750" y1="306" x2="850" y2="260.4"/>
	<line class="st2" x1="430" y1="549.9" x2="558.1" y2="491"/>
	<line class="st2" x1="294.7" y1="612.8" x2="355.8" y2="584.6"/>
	<line class="st2" x1="484.6" y1="338.6" x2="663.6" y2="255.9"/>
	<line class="st2" x1="626.2" y1="533.9" x2="876.8" y2="418.1"/>
	<line class="st2" x1="561" y1="717.9" x2="616.3" y2="692.4"/>
	<line class="st2" x1="719.5" y1="644.6" x2="870.8" y2="574.8"/>
	<line class="st2" x1="541.5" y1="471.2" x2="768.7" y2="367.7"/>
	<line class="st2" x1="541.5" y1="402.1" x2="541.5" y2="471.2"/>
	<line class="st2" x1="499.5" y1="440.4" x2="499.5" y2="517.9"/>
	<line class="st2" x1="355.3" y1="506.5" x2="355.8" y2="584.5"/>
	<line class="st2" x1="226.1" y1="411.3" x2="225.7" y2="436.5"/>
	<line class="st2" x1="626" y1="534.2" x2="626" y2="611.4"/>
	<line class="st2" x1="762.8" y1="478" x2="762.8" y2="548.3"/>
	<line class="st2" x1="768.8" y1="475.3" x2="768.8" y2="545.6"/>
	<line class="st2" x1="719.4" y1="575.8" x2="719.4" y2="651.5"/>
	<line class="st2" x1="795.1" y1="540.4" x2="795.1" y2="609.4"/>
	<polyline class="st2" points="329.3,153.7 429.1,228.1 428.5,297.3 	"/>
	<line class="st2" x1="136.4" y1="495.5" x2="294.7" y2="612.8"/>
	<line class="st2" x1="682.7" y1="277.4" x2="705.5" y2="294.2"/>
	<line class="st2" x1="682.7" y1="283.8" x2="705.5" y2="300.6"/>
	<line class="st2" x1="689.5" y1="261.7" x2="749.9" y2="306.3"/>
	<path class="st2" d="M711.2,298.6"/>
	<line class="st2" x1="541.5" y1="471.2" x2="626.2" y2="533.9"/>
	<line class="st2" x1="401.3" y1="687.8" x2="545.2" y2="791.8"/>
	<line class="st2" x1="762.5" y1="547.7" x2="704.5" y2="504.9"/>
	<line class="st2" x1="662.3" y1="602.4" x2="719.5" y2="644.6"/>
	<polyline class="st2" points="716.5,286.4 750,311.2 768.7,302.7 	"/>
	<path class="st2" d="M821.4,421"/>
	<path class="st2" d="M768.7,368.6"/>
	<line class="st2" x1="689.7" y1="192.4" x2="749.7" y2="236.7"/>
	<line class="st3" x1="484.6" y1="338.6" x2="326.8" y2="221.6"/>
	<line class="st2" x1="623.8" y1="281.7" x2="628.5" y2="285.2"/>
	<line class="st2" x1="484.6" y1="345.8" x2="489.8" y2="349.7"/>
	<polyline class="st2" points="484.6,338.6 484.6,367.2 536.5,405.6 536.4,467.1 	"/>
	<line class="st2" x1="568.1" y1="307.5" x2="484.5" y2="345.8"/>
	<line class="st2" x1="628.1" y1="285.2" x2="489.2" y2="349.6"/>
	<polyline class="st2" points="489.7,349.7 489.7,357 494.9,360.8 	"/>
	<polyline class="st2" points="628.4,284.9 628.4,292.5 489.5,357 	"/>
	<line class="st2" x1="633.1" y1="296.3" x2="494.3" y2="360.7"/>
	<polyline class="st2" points="494.7,360.3 494.7,367.5 541.5,402.1 	"/>
	<polyline class="st2" points="628.4,292.4 633.4,296.2 633.4,303 	"/>
	<polyline class="st2" points="680.5,338.2 633.5,303.3 494.6,367.5 	"/>
	<polyline class="st2" points="276.5,326.7 409.9,425.3 504.1,381.6 	"/>
	<polyline class="st2" points="705.4,294.2 705.4,300.7 699.4,303.4 	"/>
	<polyline class="st2" points="688.7,274.6 682.7,277.4 682.7,283.8 	"/>
	<line class="st2" x1="676.9" y1="286.3" x2="699.6" y2="303.1"/>
	<line class="st2" x1="676.9" y1="292.8" x2="699.6" y2="309.6"/>
	<polyline class="st2" points="676.9,292.7 676.9,286.3 682.7,283.8 	"/>
	<polyline class="st2" points="699.5,303.2 699.5,309.6 693.6,312.4 	"/>
	<line class="st2" x1="710.9" y1="285.4" x2="716.5" y2="282.1"/>
	<path class="st2" d="M722.7,280.6"/>
	<line class="st2" x1="688.4" y1="268.3" x2="711.1" y2="285.1"/>
	<line class="st2" x1="688.4" y1="274.8" x2="711.1" y2="291.6"/>
	<polyline class="st2" points="688.4,274.7 688.2,268.5 694.4,265.5 	"/>
	<polyline class="st2" points="711,285.2 711,291.6 705.2,294.3 	"/>
	<line class="st2" x1="670.9" y1="295.5" x2="693.6" y2="312.3"/>
	<line class="st2" x1="670.9" y1="302" x2="693.6" y2="318.8"/>
	<polyline class="st2" points="670.9,301.9 670.9,295.5 670.9,295.5 676.9,292.7 	"/>
	<polyline class="st2" points="693.6,312.4 693.6,318.8 687.6,321.6 	"/>
	<line class="st2" x1="665.3" y1="304.5" x2="688" y2="321.3"/>
	<line class="st4" x1="552.9" y1="493.9" x2="568.5" y2="505.4"/>
	<line class="st4" x1="552.9" y1="499.5" x2="568.5" y2="511.1"/>
	<line class="st4" x1="552.9" y1="505.2" x2="568.5" y2="516.8"/>
	<line class="st4" x1="552.9" y1="510.9" x2="568.5" y2="522.4"/>
	<line class="st4" x1="552.9" y1="516.5" x2="568.5" y2="528.1"/>
	<line class="st4" x1="552.9" y1="522.2" x2="568.5" y2="533.8"/>
	<line class="st4" x1="552.9" y1="527.9" x2="568.5" y2="539.4"/>
	<line class="st4" x1="552.9" y1="533.5" x2="568.5" y2="545.1"/>
	<line class="st4" x1="552.9" y1="539.2" x2="568.5" y2="550.8"/>
	<line class="st4" x1="552.9" y1="544.9" x2="568.5" y2="556.4"/>
	<line class="st4" x1="552.9" y1="550.5" x2="568.5" y2="562.1"/>
	<line class="st4" x1="552.9" y1="556.2" x2="568.5" y2="567.8"/>
	<line class="st2" x1="665.3" y1="310.9" x2="687.7" y2="327.5"/>
	<polyline class="st2" points="665.3,310.9 665.3,304.5 670.9,301.9 	"/>
	<polyline class="st2" points="687.9,321.4 687.8,327.5 680.7,330.6 	"/>
	<line class="st2" x1="658.1" y1="314.2" x2="680.8" y2="331"/>
	<polyline class="st2" points="658.2,321.7 658.2,314 665.3,310.9 	"/>
	<polyline class="st2" points="680.5,330.3 680.5,338.6 680.5,338.2 541.1,402.4 	"/>
	<polyline class="st2" points="355.3,506.8 499.5,439.9 541.5,471.2 	"/>
	<line class="st2" x1="208.3" y1="548.6" x2="326" y2="494.1"/>
	<polyline class="st2" points="484.5,345.8 326.6,229.2 326.6,221.4 378.8,197.4 	"/>
	<path class="st2" d="M478.6,363.1"/>
	<path class="st2" d="M484.6,345.8"/>
	<polyline class="st2" points="423.5,293.4 423.5,230 328.6,159.8 328.6,153.3 465.4,90.4 565.7,164.6 565.7,234.3 	"/>
	<line class="st2" x1="481.8" y1="677" x2="481.8" y2="746"/>
	<path class="st2" d="M294.7,612.8"/>
	<path class="st2" d="M271.5,596.2"/>
	<path class="st2" d="M271.5,602.6"/>
	<path class="st2" d="M271.5,596.2"/>
	<line class="st2" x1="219.8" y1="413.8" x2="225.8" y2="411"/>
	<line class="st2" x1="197.1" y1="396.9" x2="219.8" y2="413.7"/>
	<line class="st2" x1="197.1" y1="403.3" x2="219.8" y2="420.1"/>
	<polyline class="st2" points="219.6,413.7 219.6,420.1 213.7,422.9 	"/>
	<polyline class="st2" points="203,394.1 197.1,396.9 197.1,403.3 	"/>
	<line class="st2" x1="191.2" y1="405.9" x2="213.9" y2="422.7"/>
	<line class="st2" x1="191.2" y1="412.3" x2="213.9" y2="429.1"/>
	<polyline class="st2" points="191.2,412.3 191.2,406 197.1,403.3 	"/>
	<polyline class="st2" points="213.9,422.8 213.9,429.2 207.9,431.9 	"/>
	<line class="st2" x1="185.2" y1="415.1" x2="207.9" y2="431.9"/>
	<line class="st2" x1="185.2" y1="421.5" x2="207.9" y2="438.3"/>
	<polyline class="st2" points="185.2,421.5 185.2,415.1 185.2,415 191.2,412.3 	"/>
	<polyline class="st2" points="207.9,431.9 207.9,438.3 201.9,441.1 	"/>
	<line class="st2" x1="176.6" y1="479.7" x2="219.8" y2="460"/>
	<line class="st2" x1="176.6" y1="486.1" x2="219.8" y2="466.5"/>
	<line class="st2" x1="201.9" y1="447.2" x2="226" y2="436.2"/>
	<line class="st2" x1="179.6" y1="424" x2="202.3" y2="440.8"/>
	<line class="st2" x1="136.6" y1="450.1" x2="176.6" y2="479.7"/>
	<polyline class="st2" points="179.6,430.4 179.6,424 185.2,421.5 	"/>
	<path class="st2" d="M195,450.1"/>
	<line class="st2" x1="202.2" y1="440.9" x2="202.1" y2="447"/>
	<polyline class="st2" points="179.6,430.5 219.6,460 219.5,466.5 	"/>
	<line class="st2" x1="182" y1="489.6" x2="224.9" y2="470.1"/>
	<line class="st2" x1="182" y1="496.1" x2="225.1" y2="476.4"/>
	<polyline class="st2" points="219.6,466.5 225,470.3 224.8,476.4 	"/>
	<line class="st2" x1="187" y1="499.7" x2="230.2" y2="480.1"/>
	<line class="st2" x1="187" y1="506.7" x2="230.2" y2="487.1"/>
	<polyline class="st2" points="225,476.4 230,480.1 229.9,487.1 	"/>
	<polyline class="st2" points="176.8,479.6 176.7,485.8 176.6,486.1 182.1,489.9 182,496 187.2,499.9 187,506.7 192.5,510.7 	"/>
	<line class="st2" x1="192.4" y1="510.4" x2="235.2" y2="490.9"/>
	<line class="st2" x1="192.4" y1="517.7" x2="235.5" y2="498"/>
	<polyline class="st2" points="230,487.1 235.4,491 235.2,498 	"/>
	<polyline class="st2" points="235.4,498 240.6,501.8 240.4,508.7 	"/>
	<polyline class="st2" points="192.5,510.4 192.4,517.7 197.6,521.5 	"/>
	<line class="st2" x1="197.4" y1="521.3" x2="240.6" y2="501.7"/>
	<line class="st2" x1="197.8" y1="528.1" x2="240.6" y2="508.7"/>
	<polyline class="st2" points="197.6,521.3 197.5,528 202.8,531.8 	"/>
	<polyline class="st2" points="240.5,508.3 245.7,512.1 245.6,518.5 	"/>
	<line class="st2" x1="202.6" y1="531.7" x2="245.8" y2="512"/>
	<line class="st2" x1="202.5" y1="538.1" x2="245.7" y2="518.5"/>
	<polyline class="st2" points="202.8,531.6 202.6,537.8 207.8,541.6 	"/>
	<polyline class="st2" points="245.6,518.2 250.8,521.9 250.6,528.9 	"/>
	<line class="st2" x1="207.7" y1="541.5" x2="250.9" y2="521.8"/>
	<line class="st2" x1="207.9" y1="541.5" x2="207.8" y2="548.1"/>
	<path class="st2" d="M300,635.3"/>
	<polyline class="st2" points="355.8,584.5 355.8,591.9 294.6,619.7 136.4,502 136.4,493.2 136.4,450.1 179.6,430.5 	"/>
	<polyline class="st2" points="790.2,465.3 849.5,509.2 849.5,515.7 616.3,623.4 616.3,699.1 562.3,724.1 	"/>
	<polyline class="st2" points="355.8,591.9 481.8,685.5 610.8,625.9 610.8,625.9 610.8,695.1 	"/>
	<polyline class="st2" points="499.5,447.9 584.5,511 584.5,580.5 626.2,611.3 	"/>
	<line class="st2" x1="553.2" y1="652.5" x2="610.2" y2="694.8"/>
	<polyline class="st2" points="226,420.1 348.3,510.2 348.3,579.1 481.8,677.3 481.9,677.3 848.9,509.1 	"/>
	<polyline class="st2" points="749.4,243.3 837.2,202.8 837.3,202.7 837.3,196.5 777.3,151.9 689.7,192.4 689.7,192.6 689.7,266.7 
		690.7,267.4 	"/>
	<line class="st2" x1="488.3" y1="682.5" x2="493.8" y2="686.6"/>
	<line class="st2" x1="493.6" y1="686.4" x2="536.3" y2="667"/>
	<line class="st2" x1="493.6" y1="692.8" x2="536.8" y2="673.2"/>
	<polyline class="st2" points="530.8,662.8 536.6,667 536.5,673.2 	"/>
	<polyline class="st2" points="493.8,686.4 493.6,692.8 498.8,696.6 	"/>
	<line class="st2" x1="498.7" y1="696.5" x2="541.6" y2="677"/>
	<line class="st2" x1="498.7" y1="703.5" x2="541.9" y2="683.8"/>
	<polyline class="st2" points="536.6,673.2 541.7,676.9 541.5,683.8 	"/>
	<polyline class="st2" points="498.9,696.5 498.7,703.5 504,707.3 	"/>
	<line class="st2" x1="504" y1="707.1" x2="547" y2="687.6"/>
	<line class="st2" x1="504" y1="714.4" x2="547.2" y2="694.8"/>
	<polyline class="st2" points="541.7,683.8 547,687.7 546.9,694.8 	"/>
	<polyline class="st2" points="547,694.8 552.1,698.5 552,705.5 	"/>
	<polyline class="st2" points="504.2,707.1 504,714.1 509.2,718.2 	"/>
	<line class="st2" x1="509.1" y1="718.1" x2="552.3" y2="698.5"/>
	<line class="st2" x1="509.1" y1="725" x2="552.3" y2="705.4"/>
	<polyline class="st2" points="509.3,718.1 509.1,724.7 514.4,728.5 	"/>
	<polyline class="st2" points="552.2,705.1 557.3,708.8 557.2,715.8 	"/>
	<line class="st2" x1="514.3" y1="728.4" x2="557.4" y2="708.8"/>
	<line class="st2" x1="514.3" y1="734.8" x2="557.5" y2="715.2"/>
	<polyline class="st2" points="514.4,728.4 514.3,734.8 519.5,738.7 	"/>
	<line class="st2" x1="519.4" y1="738.5" x2="562.6" y2="718.9"/>
	<line class="st2" x1="519.4" y1="745.5" x2="562.6" y2="725.9"/>
	<polyline class="st2" points="557.3,715.2 562.4,718.9 562.2,725.9 	"/>
	<polyline class="st2" points="519.6,738.5 519.4,745.5 524.8,749.5 	"/>
	<line class="st2" x1="524.7" y1="749.2" x2="567.6" y2="729.7"/>
	<line class="st2" x1="524.7" y1="757" x2="567.9" y2="737.4"/>
	<polyline class="st2" points="562.4,725.9 567.7,729.8 567.5,737.4 	"/>
	<polyline class="st2" points="567.7,737.4 572.8,741.1 572.7,748.7 	"/>
	<polyline class="st2" points="524.9,749.2 524.7,757 529.9,760.8 	"/>
	<line class="st2" x1="529.8" y1="760.7" x2="572.9" y2="741.1"/>
	<line class="st2" x1="530" y1="768.1" x2="572.9" y2="748.6"/>
	<polyline class="st2" points="529.9,760.7 529.9,767.9 535.1,771.7 	"/>
	<polyline class="st2" points="572.9,748.3 578,752 577.9,759.5 	"/>
	<line class="st2" x1="535" y1="771.6" x2="578.1" y2="752"/>
	<line class="st2" x1="535.1" y1="779.2" x2="578.3" y2="759.6"/>
	<polyline class="st2" points="535.1,771.6 535,779.1 540.3,783 	"/>
	<line class="st2" x1="545.1" y1="791.9" x2="588.3" y2="772.3"/>
	<line class="st5" x1="545.3" y1="791.9" x2="545.1" y2="799.1"/>
	<line class="st2" x1="540.1" y1="782.8" x2="540" y2="787.6"/>
	<line class="st2" x1="540.2" y1="782.9" x2="583.4" y2="763.2"/>
	<line class="st2" x1="540.2" y1="788.1" x2="583.4" y2="768.5"/>
	<polyline class="st2" points="578,759.4 583.2,763.2 583,768.8 	"/>
	<path class="st5" d="M546.1,801.6"/>
	<path class="st2" d="M593.7,785"/>
	<path class="st2" d="M589.1,782.6"/>
	<path class="st2" d="M594.2,785.2"/>
	<line class="st2" x1="355.7" y1="506.9" x2="361.2" y2="511"/>
	<line class="st2" x1="360.7" y1="510.6" x2="404" y2="491.1"/>
	<line class="st2" x1="361" y1="516.8" x2="404.2" y2="497.2"/>
	<polyline class="st2" points="398.2,486.9 404,491.1 403.9,497.2 	"/>
	<polyline class="st2" points="361,510.5 360.8,516.6 366.3,520.6 	"/>
	<line class="st2" x1="366.1" y1="520.5" x2="409.3" y2="500.9"/>
	<line class="st2" x1="366.1" y1="527.5" x2="409.3" y2="507.9"/>
	<polyline class="st2" points="404,497.2 409.1,500.9 409,507.9 	"/>
	<polyline class="st2" points="366.3,520.5 366.2,527.5 371.5,531.5 	"/>
	<line class="st2" x1="371.4" y1="531.2" x2="414.3" y2="511.7"/>
	<line class="st2" x1="371.4" y1="538.4" x2="414.6" y2="518.8"/>
	<polyline class="st2" points="409.1,507.9 414.4,511.8 414.3,518.8 	"/>
	<polyline class="st2" points="414.4,518.8 419.6,522.6 419.6,529.2 	"/>
	<polyline class="st2" points="371.6,531.1 371.5,538.4 376.6,542.2 	"/>
	<line class="st2" x1="376.5" y1="542.1" x2="419.7" y2="522.5"/>
	<line class="st2" x1="376.8" y1="548.9" x2="419.7" y2="529.4"/>
	<polyline class="st2" points="376.7,542.1 376.6,548.7 381.8,552.5 	"/>
	<polyline class="st2" points="419.6,529.1 424.8,532.9 424.6,539.8 	"/>
	<line class="st2" x1="381.7" y1="552.4" x2="424.9" y2="532.8"/>
	<line class="st2" x1="381.7" y1="558.9" x2="424.9" y2="539.2"/>
	<polyline class="st2" points="381.9,552.4 381.7,558.9 386.9,562.7 	"/>
	<line class="st2" x1="386.8" y1="562.6" x2="430" y2="542.9"/>
	<line class="st2" x1="386.8" y1="569.5" x2="430" y2="549.9"/>
	<polyline class="st2" points="424.7,539.2 429.8,543.2 429.7,549.9 	"/>
	<polyline class="st2" points="387,562.5 386.9,569.6 392,573.3 435,553.8 	"/>
	<line class="st2" x1="392.1" y1="581" x2="435.3" y2="561.4"/>
	<polyline class="st2" points="429.8,549.9 435.1,553.8 435,561.4 	"/>
	<polyline class="st2" points="435.1,561.4 440.3,565.2 440.1,572.7 	"/>
	<polyline class="st2" points="392.3,573.2 392.2,581.1 397.3,584.8 	"/>
	<line class="st2" x1="397.2" y1="584.7" x2="440.4" y2="565.1"/>
	<line class="st2" x1="397.5" y1="592.1" x2="440.4" y2="572.6"/>
	<polyline class="st2" points="397.4,584.7 397.2,591.9 402.5,595.7 	"/>
	<polyline class="st2" points="440.3,572.3 445.5,576 445.3,583.6 	"/>
	<line class="st2" x1="402.4" y1="595.6" x2="445.6" y2="576"/>
	<line class="st2" x1="402.6" y1="603.2" x2="445.7" y2="583.6"/>
	<polyline class="st2" points="402.6,595.6 402.4,603.1 407.8,607 	"/>
	<line class="st2" x1="407.6" y1="606.9" x2="450.8" y2="587.3"/>
	<line class="st2" x1="407.6" y1="614.4" x2="450.8" y2="594.8"/>
	<polyline class="st2" points="445.6,583.6 450.6,587.3 450.5,594.8 	"/>
	<polyline class="st2" points="407.8,606.9 407.6,614.4 413.6,619 	"/>
	<line class="st2" x1="413.5" y1="618.7" x2="456.4" y2="599.2"/>
	<path class="st2" d="M413.5,625.7"/>
	<path class="st2" d="M461.2,609"/>
	<polyline class="st2" points="450.6,594.8 456.5,599.3 456.4,607 413,626.2 	"/>
	<path class="st2" d="M461.7,609.2"/>
	<line class="st2" x1="413.4" y1="618.7" x2="413.3" y2="626.2"/>
	<polyline class="st2" points="428.5,297.3 607.8,214.8 663.6,255.9 663.6,263.3 568.1,307.3 	"/>
	<polyline class="st2" points="607.8,440.7 607.8,400.1 629.4,390.1 629.4,431.2 	"/>
	<polyline class="st2" points="768.7,367.7 768.7,256.8 790.2,246.8 790.2,287.4 	"/>
	<polyline class="st2" points="523.2,253.6 523.2,213.9 544.7,203.8 544.7,243.9 	"/>
	<polyline class="st2" points="716.5,281.7 716.5,321.7 680.5,338.2 	"/>
	<polyline class="st2" points="694.4,265.5 694.4,227.2 716.4,243.3 716.5,281.7 	"/>
	<polyline class="st2" points="586.7,637.1 597.4,645 597.4,685.6 	"/>
	<line class="st2" x1="577.3" y1="670.5" x2="577.3" y2="641.4"/>
	<polyline class="st2" points="455.6,538 455.6,496.9 477.2,486.8 477.2,528 	"/>
	<line class="st2" x1="463.1" y1="336.4" x2="468.4" y2="334"/>
	<path class="st2" d="M451.7,314.7"/>
	<path class="st2" d="M422.7,299.8"/>
	<path class="st2" d="M428.7,297.1"/>
	<path class="st2" d="M422.7,299.8"/>
	<line class="st2" x1="423.2" y1="306.9" x2="463.1" y2="336.4"/>
	<line class="st2" x1="423.2" y1="313.3" x2="463.3" y2="342.6"/>
	<polyline class="st2" points="423.2,313.3 423.2,306.9 428.6,304.5 	"/>
	<polyline class="st2" points="463.1,336.4 463.1,342.6 457.2,345.4 	"/>
	<line class="st2" x1="417.2" y1="316.1" x2="457.2" y2="345.4"/>
	<line class="st2" x1="417.2" y1="322.5" x2="457.2" y2="351.8"/>
	<polyline class="st2" points="417.2,322.5 417.2,316.1 417.2,316 423.2,313.3 	"/>
	<polyline class="st2" points="457.2,345.4 457.2,351.8 451.6,354.4 	"/>
	<line class="st2" x1="411.5" y1="325" x2="451.6" y2="354.4"/>
	<line class="st2" x1="411.5" y1="331.5" x2="451.5" y2="360.5"/>
	<polyline class="st2" points="411.5,331.4 411.5,325 417.2,322.5 	"/>
	<polyline class="st2" points="451.6,354.4 451.5,360.5 446.1,362.7 	"/>
	<line class="st2" x1="406.1" y1="333.8" x2="446.2" y2="363.1"/>
	<line class="st2" x1="406.1" y1="340.4" x2="445.8" y2="369.5"/>
	<polyline class="st2" points="406.1,340.3 406.1,333.9 411.5,331.5 	"/>
	<line class="st2" x1="400.3" y1="342.9" x2="440.4" y2="372.2"/>
	<line class="st2" x1="400.3" y1="349.3" x2="440.4" y2="378.7"/>
	<polyline class="st2" points="400.3,349.3 400.1,343.1 406.1,340.3 	"/>
	<polyline class="st2" points="440.3,372.3 440.3,378.7 434.4,381.4 	"/>
	<polyline class="st2" points="445.8,363.1 445.8,369.5 440.2,372.5 	"/>
	<line class="st2" x1="394.3" y1="352.1" x2="434.4" y2="381.4"/>
	<line class="st2" x1="394.3" y1="358.5" x2="434.4" y2="387.8"/>
	<polyline class="st2" points="394.3,358.5 394.3,352.1 394.3,352.1 400.3,349.3 	"/>
	<polyline class="st2" points="434.4,381.5 434.4,387.9 428.4,390.6 	"/>
	<line class="st2" x1="388.7" y1="361.1" x2="428.8" y2="390.4"/>
	<line class="st2" x1="388.7" y1="367.5" x2="428.5" y2="396.5"/>
	<polyline class="st2" points="388.7,367.5 388.7,361.1 394.3,358.5 	"/>
	<line class="st2" x1="381.9" y1="370.3" x2="421.8" y2="399.4"/>
	<line class="st2" x1="381.9" y1="376.7" x2="421.8" y2="405.8"/>
	<polyline class="st2" points="381.9,376.7 381.9,370.6 388.7,367.5 	"/>
	<line class="st2" x1="376.1" y1="379.2" x2="415.9" y2="408.3"/>
	<line class="st2" x1="376.1" y1="386.3" x2="415.9" y2="415.3"/>
	<polyline class="st2" points="376.1,386.2 376.1,379.5 381.9,376.7 	"/>
	<polyline class="st2" points="415.9,408.4 415.9,415.4 409.9,418.1 	"/>
	<polyline class="st2" points="428.7,390.4 428.6,396.6 421.5,399.6 421.5,406 415.7,408.6 	"/>
	<line class="st2" x1="370.1" y1="389" x2="409.9" y2="418.1"/>
	<polyline class="st2" points="370.1,395.9 370.1,388.7 376.3,385.9 	"/>
	<line class="st2" x1="409.9" y1="418.1" x2="409.9" y2="425.1"/>
	<line class="st2" x1="294.7" y1="612.8" x2="294.7" y2="619.3"/>
	<polyline class="st2" points="452.7,663.9 401.1,687.8 401.1,695.1 545.1,799.1 588,779.2 588.2,772.3 583,768.6 	"/>
	<polyline class="st2" points="147.6,275.5 233.5,339.6 233.5,416.2 	"/>
	<polyline class="st2" points="233.5,416.2 240.2,413.7 240.2,343.7 329,302.8 329,295.1 242.7,231.2 147.6,275 147.6,353.7 
		355.4,506.6 	"/>
	<path class="st2" d="M761.9,300.9"/>
	<path class="st2" d="M689.7,261.6"/>
	<line class="st2" x1="768.7" y1="298.3" x2="773.3" y2="302"/>
	<line class="st2" x1="804.7" y1="218.1" x2="804.6" y2="281.6"/>
	<polyline class="st2" points="790.2,287.4 796,292 795.9,299.5 	"/>
	<line class="st2" x1="773.2" y1="301.9" x2="796.1" y2="291.9"/>
	<line class="st2" x1="773.5" y1="309.6" x2="796.1" y2="299.4"/>
	<polyline class="st2" points="773.4,301.9 773.2,309.4 778.5,313.2 	"/>
	<polyline class="st2" points="796,299.1 801.2,303.2 801,311 	"/>
	<line class="st2" x1="778.4" y1="313.1" x2="800.8" y2="303"/>
	<line class="st2" x1="778.4" y1="320.6" x2="801.3" y2="310.4"/>
	<polyline class="st2" points="778.6,313 778.4,320.5 778.4,320.6 783.6,324.4 	"/>
	<line class="st2" x1="783.5" y1="324.3" x2="805.7" y2="314.4"/>
	<line class="st2" x1="783.5" y1="331.3" x2="806.4" y2="321.1"/>
	<polyline class="st2" points="801.2,310.4 806.2,314.4 806.1,321.1 	"/>
	<line class="st2" x1="788.8" y1="335" x2="811.7" y2="324.7"/>
	<line class="st2" x1="788.8" y1="343.4" x2="811.7" y2="333.1"/>
	<polyline class="st2" points="806.2,321.1 811.4,324.9 811.4,333.1 	"/>
	<polyline class="st2" points="811.5,333.1 817,337.2 816.8,345.3 	"/>
	<polyline class="st2" points="783.7,324.3 783.5,331 789,335.2 788.9,343.4 794,347.2 	"/>
	<line class="st2" x1="793.9" y1="347.3" x2="816.8" y2="337.1"/>
	<line class="st2" x1="794.2" y1="355.1" x2="816.8" y2="345.2"/>
	<polyline class="st2" points="794.1,347 793.9,355.1 799.2,358.9 	"/>
	<polyline class="st2" points="817.1,345.1 821.9,348.9 821.7,356.7 	"/>
	<line class="st2" x1="799.1" y1="358.8" x2="821.5" y2="348.8"/>
	<line class="st2" x1="799.2" y1="367" x2="822.2" y2="356.7"/>
	<polyline class="st2" points="799.3,358.8 799.1,367 804.4,370.2 	"/>
	<line class="st2" x1="804.3" y1="370.1" x2="826.9" y2="360.7"/>
	<line class="st2" x1="804.3" y1="378.8" x2="827.2" y2="368.5"/>
	<polyline class="st2" points="822,356.7 827.1,360.7 826.9,368.5 	"/>
	<line class="st2" x1="810.2" y1="383" x2="833.1" y2="372.8"/>
	<line class="st2" x1="810.2" y1="391.1" x2="833.1" y2="381.4"/>
	<path class="st2" d="M837.6,383.8"/>
	<path class="st2" d="M838.1,384.1"/>
	<polyline class="st2" points="804.5,370 804.4,378.5 810.4,383.2 810.2,391.1 815.6,394.7 	"/>
	<line class="st2" x1="815.7" y1="394.6" x2="838.3" y2="385.5"/>
	<polyline class="st2" points="827.1,368.5 832.9,373 832.8,381.6 838.4,385.5 838.3,393 815.7,403.2 768.2,367.7 	"/>
	<line class="st2" x1="815.6" y1="394.2" x2="815.4" y2="402.6"/>
	<path class="st2" d="M759.5,463.4"/>
	<path class="st2" d="M879.1,435.3"/>
	<path class="st2" d="M760,463.6"/>
	<line class="st2" x1="749.9" y1="310.9" x2="749.7" y2="236.7"/>
	<polyline class="st2" points="838.4,389.4 876.8,418.3 876.8,425.3 632.6,538.1 632.6,608.3 	"/>
	<line class="st2" x1="680.5" y1="338.6" x2="680.5" y2="408"/>
	<polyline class="st2" points="804.7,226.8 850,260.4 850,265.6 794.6,290.9 	"/>
	<polyline class="st2" points="813.2,532.4 870.8,574.8 870.8,582.1 719.4,651.5 656.2,605 	"/>
	<path class="st4" d="M582,495.9c0-10.1-13.5-9.9-13.5,6.2c0,7.6,0,70.6,0,70.6"/>
	<path class="st4" d="M566.3,484.9c0-10.1-13.5-9.9-13.5,6.2c0,7.6,0,70.6,0,70.6"/>
	<line class="st1" x1="440.4" y1="306.7" x2="619.8" y2="224.3"/>
	<line class="st1" x1="468" y1="327" x2="647.4" y2="244.5"/>
	<line class="st1" x1="454" y1="316" x2="633.3" y2="233.5"/>
	<line class="st1" x1="523.8" y1="253.9" x2="579.6" y2="295"/>
	<line class="st1" x1="566.1" y1="233.9" x2="621.9" y2="275"/>
	<line class="st1" x1="478.9" y1="274.2" x2="534.7" y2="315.3"/>
	<line class="st1" x1="502.5" y1="263.5" x2="558.2" y2="304.5"/>
	<line class="st1" x1="454.4" y1="285.5" x2="510.2" y2="326.5"/>
	<line class="st1" x1="544.5" y1="243.7" x2="600.3" y2="284.8"/>
	<line class="st1" x1="492.7" y1="379.4" x2="643.5" y2="310.1"/>
	<line class="st1" x1="528.7" y1="395.8" x2="670.8" y2="330.5"/>
	<line class="st1" x1="513.2" y1="385.5" x2="655.9" y2="319.7"/>
	<line class="st1" x1="578.8" y1="329.2" x2="634.6" y2="370.2"/>
	<line class="st1" x1="621.2" y1="309.2" x2="676.9" y2="350.2"/>
	<line class="st1" x1="533.9" y1="349.5" x2="589.7" y2="390.6"/>
	<line class="st1" x1="557.5" y1="338.7" x2="613.3" y2="379.8"/>
	<line class="st1" x1="509.5" y1="360.7" x2="565.2" y2="401.8"/>
	<line class="st1" x1="599.6" y1="319" x2="655.3" y2="360"/>
	<line class="st1" x1="484.9" y1="391.6" x2="540.6" y2="432.6"/>
	<line class="st1" x1="440" y1="411.9" x2="495.7" y2="453"/>
	<line class="st1" x1="463.5" y1="401.2" x2="537.3" y2="455.5"/>
	<line class="st1" x1="416.3" y1="421.7" x2="472.1" y2="462.8"/>
	<line class="st1" x1="505.6" y1="381.4" x2="561.4" y2="422.4"/>
	<line class="st1" x1="587.3" y1="224.3" x2="643.1" y2="265.3"/>
	<line class="st1" x1="591.3" y1="448.8" x2="647.1" y2="489.8"/>
	<line class="st1" x1="670.2" y1="521.8" x2="728.3" y2="564.6"/>
	<line class="st1" x1="689" y1="512" x2="748.6" y2="555.9"/>
	<line class="st1" x1="566.8" y1="460" x2="622.6" y2="501"/>
	<line class="st1" x1="664.6" y1="415.8" x2="720.3" y2="456.9"/>
	<line class="st1" x1="632.2" y1="478.8" x2="680.5" y2="514.4"/>
	<line class="st1" x1="607.7" y1="490.1" x2="653.6" y2="523.9"/>
	<line class="st1" x1="704.8" y1="445.4" x2="760.5" y2="486.5"/>
	<line class="st1" x1="770.2" y1="364.1" x2="825.9" y2="405.2"/>
	<line class="st1" x1="811" y1="394.2" x2="862.3" y2="432"/>
	<polyline class="st1" points="839.6,441 789.4,404 804.3,415 750.9,375.6 	"/>
	<polyline class="st1" points="815.4,450.4 768.5,415.9 783.4,426.9 727.6,385.8 	"/>
	<polyline class="st1" points="794,460.4 747.3,425.9 762.2,436.9 706.4,395.9 	"/>
	<polyline class="st1" points="775.4,471 727.2,435.5 742,446.5 686.3,405.4 	"/>
	<polyline class="st1" points="738.5,497.1 682.7,456 697.6,467 641.8,425.9 	"/>
	<line class="st1" x1="696.5" y1="204.7" x2="790.8" y2="161.7"/>
	<line class="st1" x1="726.2" y1="227.3" x2="820.5" y2="184.3"/>
	<line class="st1" x1="712.1" y1="216.2" x2="806.4" y2="173.2"/>
	<line class="st1" x1="735" y1="172.2" x2="795.1" y2="216.5"/>
	<line class="st1" x1="758.6" y1="161.5" x2="818.6" y2="205.7"/>
	<line class="st1" x1="793.1" y1="265.9" x2="832.6" y2="247.9"/>
	<line class="st1" x1="795.4" y1="247.3" x2="818.5" y2="236.8"/>
	<line class="st1" x1="792.3" y1="269.1" x2="807.2" y2="280.1"/>
	<line class="st1" x1="787.2" y1="237.2" x2="830.7" y2="269.3"/>
	<line class="st1" x1="710.6" y1="183.5" x2="770.6" y2="227.7"/>
	<line class="st1" x1="161.9" y1="284" x2="256.2" y2="241"/>
	<line class="st1" x1="191.6" y1="306.5" x2="285.8" y2="263.5"/>
	<line class="st1" x1="177.5" y1="295.4" x2="271.8" y2="252.4"/>
	<line class="st1" x1="203.7" y1="317" x2="299.6" y2="273.3"/>
	<line class="st1" x1="219.3" y1="328.5" x2="315.1" y2="284.8"/>
	<line class="st1" x1="554.3" y1="479.7" x2="805.6" y2="365.6"/>
	<line class="st1" x1="569.9" y1="491.2" x2="821.2" y2="377.1"/>
	<line class="st1" x1="596.1" y1="512.8" x2="849.1" y2="397.9"/>
	<line class="st1" x1="611.7" y1="524.3" x2="864.6" y2="409.4"/>
	<line class="st1" x1="681.2" y1="553.9" x2="711.8" y2="576.4"/>
	<polyline class="st1" points="858.3,585 808.2,548.1 823.1,559.1 792.1,536.4 	"/>
	<polyline class="st1" points="835.8,594.3 788.9,559.7 803.8,570.7 748.1,529.6 	"/>
	<polyline class="st1" points="816,602.4 769.3,567.9 784.2,578.9 750.9,554.6 	"/>
	<polyline class="st1" points="797.4,613 749.1,577.5 764,588.5 730.8,564.1 	"/>
	<line class="st1" x1="718.9" y1="623" x2="678.1" y2="592.9"/>
	<line class="st1" x1="738" y1="614.6" x2="697.1" y2="584.5"/>
	<line class="st1" x1="674" y1="613.5" x2="828.6" y2="543.7"/>
	<line class="st1" x1="686.1" y1="624" x2="842.3" y2="553.5"/>
	<line class="st1" x1="701.7" y1="635.4" x2="857.8" y2="565"/>
	<line class="st1" x1="451.3" y1="602.1" x2="495.1" y2="634.4"/>
	<line class="st1" x1="433" y1="557.6" x2="485.7" y2="596.4"/>
	<line class="st1" x1="427.3" y1="613.7" x2="470.6" y2="645.6"/>
	<line class="st1" x1="472.5" y1="530.9" x2="598.6" y2="623.7"/>
	<line class="st1" x1="450" y1="540.6" x2="576" y2="633.4"/>
	<line class="st1" x1="480.2" y1="623.4" x2="528.5" y2="659"/>
	<line class="st1" x1="507.5" y1="612.7" x2="561.7" y2="652.7"/>
	<line class="st1" x1="455.7" y1="634.6" x2="501.6" y2="668.4"/>
	<line class="st1" x1="751.9" y1="483.7" x2="810" y2="526.6"/>
	<line class="st1" x1="770.8" y1="474" x2="830.3" y2="517.9"/>
	<line class="st1" x1="762.9" y1="515.9" x2="793.5" y2="538.4"/>
	<polyline class="st1" points="663.4,595 616.5,560.5 631.4,571.4 536.1,501.2 	"/>
	<polyline class="st1" points="642,604.9 595.3,570.5 610.2,581.5 514.6,511.1 	"/>
	<polyline class="st1" points="623.4,615.6 575.2,580.1 590.1,591.1 494.2,520.5 	"/>
	<line class="st1" x1="452.3" y1="595.6" x2="611.1" y2="523.4"/>
	<line class="st1" x1="436.9" y1="642.5" x2="804.4" y2="475.1"/>
	<line class="st1" x1="421.8" y1="629.8" x2="673.1" y2="515.6"/>
	<line class="st1" x1="465.8" y1="665.9" x2="834.8" y2="498.6"/>
	<line class="st1" x1="392" y1="605.4" x2="674.5" y2="477.3"/>
	<line class="st1" x1="438.7" y1="564" x2="580.8" y2="499.6"/>
	<line class="st1" x1="448.1" y1="666.3" x2="491.7" y2="698.5"/>
	<line class="st1" x1="424.1" y1="678" x2="510.8" y2="741.8"/>
	<polyline class="st1" points="586.6,708.3 539.9,673.9 554.8,684.9 535,670.3 	"/>
	<line class="st1" x1="411.5" y1="697.7" x2="472.3" y2="670"/>
	<line class="st1" x1="539.8" y1="675.5" x2="567.1" y2="663.2"/>
	<line class="st1" x1="441.2" y1="720.2" x2="494.8" y2="695.9"/>
	<line class="st1" x1="427.1" y1="709.1" x2="678.5" y2="595"/>
	<line class="st1" x1="453.3" y1="730.7" x2="580.8" y2="673"/>
	<line class="st1" x1="468.9" y1="742.2" x2="596.4" y2="684.4"/>
	<line class="st1" x1="200.4" y1="251.5" x2="287.6" y2="315.2"/>
	<line class="st1" x1="224" y1="240.7" x2="311.2" y2="304.4"/>
	<line class="st1" x1="175.9" y1="262.7" x2="263.1" y2="326.4"/>
	<line class="st1" x1="188.1" y1="371.1" x2="280.2" y2="329.1"/>
	<line class="st1" x1="217.8" y1="393.6" x2="309.8" y2="351.7"/>
	<line class="st1" x1="203.7" y1="382.5" x2="295.8" y2="340.5"/>
	<line class="st1" x1="229.9" y1="404.2" x2="323.6" y2="361.4"/>
	<line class="st1" x1="234.8" y1="420.7" x2="339.1" y2="372.9"/>
	<line class="st1" x1="251.7" y1="430.2" x2="354.4" y2="383.2"/>
	<line class="st1" x1="281.4" y1="453.1" x2="386.3" y2="405"/>
	<line class="st1" x1="267.3" y1="441.7" x2="372.2" y2="393.6"/>
	<line class="st1" x1="293.5" y1="464.4" x2="400.1" y2="415.6"/>
	<line class="st1" x1="309.1" y1="474.7" x2="508.3" y2="382.8"/>
	<polyline class="st1" points="226.6,338.6 313.8,402.3 418,477.8 	"/>
	<line class="st1" x1="250.2" y1="327.8" x2="441.6" y2="467.1"/>
	<line class="st1" x1="202.1" y1="349.8" x2="393.5" y2="489.1"/>
	<line class="st1" x1="212.7" y1="380.1" x2="374.1" y2="497.9"/>
	<line class="st1" x1="324.3" y1="485.3" x2="520.6" y2="392.4"/>
	<line class="st1" x1="340.2" y1="496.2" x2="536.5" y2="403.3"/>
	<line class="st1" x1="487.2" y1="445.5" x2="546.4" y2="417.7"/>
	<line class="st1" x1="514" y1="454.3" x2="573.2" y2="426.5"/>
	<line class="st1" x1="336.1" y1="164.4" x2="476.8" y2="99.2"/>
	<line class="st1" x1="365.8" y1="186.9" x2="506.5" y2="121.8"/>
	<line class="st1" x1="351.7" y1="175.8" x2="492.4" y2="110.7"/>
	<line class="st1" x1="377.9" y1="197.4" x2="520.2" y2="131.6"/>
	<line class="st1" x1="397.4" y1="207.1" x2="535.8" y2="143"/>
	<line class="st1" x1="414" y1="218.3" x2="552.1" y2="154.4"/>
	<line class="st1" x1="373.5" y1="132.9" x2="476.8" y2="208.4"/>
	<line class="st1" x1="397.1" y1="122.1" x2="500.3" y2="197.7"/>
	<line class="st1" x1="349.1" y1="144.1" x2="452.3" y2="219.7"/>
	<line class="st1" x1="355.6" y1="247" x2="416.6" y2="218.9"/>
	<line class="st1" x1="341.5" y1="235.9" x2="402.5" y2="207.8"/>
	<line class="st1" x1="367.7" y1="257.5" x2="510" y2="191.7"/>
	<line class="st1" x1="383.3" y1="269" x2="525.6" y2="203.1"/>
	<line class="st1" x1="403.8" y1="278.4" x2="431.4" y2="265.6"/>
	<line class="st1" x1="373" y1="199.7" x2="466.6" y2="268.5"/>
	<line class="st1" x1="348.5" y1="211" x2="442.1" y2="279.8"/>
	<line class="st1" x1="444.9" y1="99.6" x2="548.1" y2="175.2"/>
	<line class="st1" x1="420.4" y1="110.8" x2="523.6" y2="186.4"/>
	<line class="st1" x1="221.1" y1="557.5" x2="346" y2="499.6"/>
	<line class="st1" x1="250.8" y1="580" x2="391.5" y2="514.9"/>
	<line class="st1" x1="236.7" y1="568.9" x2="377.4" y2="503.8"/>
	<line class="st1" x1="262.9" y1="590.5" x2="369" y2="541.4"/>
	<line class="st1" x1="278.4" y1="602" x2="420.7" y2="536.1"/>
	<line class="st1" x1="258.5" y1="526" x2="348" y2="591.5"/>
	<line class="st1" x1="282" y1="515.2" x2="385.3" y2="590.8"/>
	<line class="st1" x1="234" y1="537.2" x2="323.5" y2="602.7"/>
	<path class="st1" d="M433,568.2"/>
	<path class="st1" d="M329.8,492.7"/>
	<line class="st1" x1="305.3" y1="503.9" x2="381.7" y2="558.9"/>
	<line class="st1" x1="144.6" y1="460.7" x2="191.8" y2="439.5"/>
	<line class="st1" x1="160.2" y1="472.1" x2="207.4" y2="450.9"/>
	<line class="st1" x1="158.6" y1="439.4" x2="200.9" y2="470.3"/>
	<polyline class="st6" points="746.5,631.9 746.5,591.3 768.1,581.3 768.1,621.9 	"/>
	<polyline class="st6" points="202.6,394.3 202.6,352.8 202.6,352.8 226,370.1 226,411.3 	"/>
	<line class="st1" x1="1.1" y1="102" x2="1049.3" y2="102"/>
	<line class="st1" x1="1.1" y1="87.8" x2="1049.3" y2="87.8"/>
	<line class="st1" x1="1.1" y1="73.7" x2="1049.3" y2="73.7"/>
	<line class="st1" x1="1.1" y1="59.5" x2="1049.3" y2="59.5"/>
	<line class="st1" x1="1.1" y1="45.3" x2="1049.3" y2="45.3"/>
	<line class="st1" x1="1.1" y1="116.2" x2="1049.3" y2="116.2"/>
	<line class="st1" x1="1.1" y1="130.4" x2="1049.3" y2="130.4"/>
	<line class="st1" x1="1.1" y1="144.5" x2="1049.3" y2="144.5"/>
	<line class="st1" x1="1.1" y1="158.7" x2="1049.3" y2="158.7"/>
	<line class="st1" x1="1.1" y1="172.9" x2="1049.3" y2="172.9"/>
	<line class="st1" x1="1.1" y1="187" x2="1049.3" y2="187"/>
	<line class="st1" x1="1.1" y1="201.2" x2="1049.3" y2="201.2"/>
	<line class="st1" x1="1.1" y1="215.4" x2="1049.3" y2="215.4"/>
	<line class="st1" x1="1.1" y1="229.6" x2="1049.3" y2="229.6"/>
	<line class="st1" x1="1.1" y1="243.7" x2="1049.3" y2="243.7"/>
	<line class="st1" x1="1.1" y1="257.9" x2="1049.3" y2="257.9"/>
	<line class="st1" x1="1.1" y1="272.1" x2="1049.3" y2="272.1"/>
	<line class="st1" x1="1.1" y1="286.3" x2="1049.3" y2="286.3"/>
	<line class="st1" x1="1.1" y1="300.4" x2="1049.3" y2="300.4"/>
	<line class="st1" x1="1.1" y1="314.6" x2="1049.3" y2="314.6"/>
	<line class="st1" x1="1.1" y1="328.8" x2="1049.3" y2="328.8"/>
	<line class="st1" x1="1.1" y1="343" x2="1049.3" y2="343"/>
	<line class="st1" x1="1.1" y1="357.1" x2="1049.3" y2="357.1"/>
	<line class="st1" x1="1.1" y1="371.3" x2="1049.3" y2="371.3"/>
	<line class="st1" x1="1.1" y1="385.5" x2="1049.3" y2="385.5"/>
	<line class="st1" x1="1.1" y1="399.6" x2="1049.3" y2="399.6"/>
	<line class="st1" x1="1.1" y1="413.8" x2="1049.3" y2="413.8"/>
	<line class="st1" x1="1.1" y1="428" x2="1049.3" y2="428"/>
	<line class="st1" x1="1.1" y1="442.2" x2="1049.3" y2="442.2"/>
	<line class="st1" x1="1.1" y1="484.7" x2="1049.3" y2="484.7"/>
	<line class="st1" x1="1.1" y1="498.9" x2="1049.3" y2="498.9"/>
	<line class="st1" x1="1.1" y1="513" x2="1049.3" y2="513"/>
	<line class="st1" x1="1.1" y1="527.2" x2="1049.3" y2="527.2"/>
	<line class="st1" x1="1.1" y1="569.7" x2="1049.3" y2="569.7"/>
	<line class="st1" x1="1.1" y1="583.9" x2="1049.3" y2="583.9"/>
	<line class="st1" x1="1.1" y1="598.1" x2="1049.3" y2="598.1"/>
	<line class="st1" x1="1.1" y1="612.2" x2="1049.3" y2="612.2"/>
	<line class="st1" x1="1.1" y1="626.4" x2="1049.3" y2="626.4"/>
	<line class="st1" x1="1.1" y1="640.6" x2="1049.3" y2="640.6"/>
	<line class="st1" x1="1.1" y1="654.8" x2="1049.3" y2="654.8"/>
	<line class="st1" x1="1.1" y1="668.9" x2="1049.3" y2="668.9"/>
	<line class="st1" x1="1.1" y1="683.1" x2="1049.3" y2="683.1"/>
	<line class="st1" x1="1.1" y1="697.3" x2="1049.3" y2="697.3"/>
	<line class="st1" x1="1.1" y1="711.5" x2="1049.3" y2="711.5"/>
	<line class="st1" x1="1.1" y1="725.6" x2="1049.3" y2="725.6"/>
	<line class="st1" x1="1.1" y1="739.8" x2="1049.3" y2="739.8"/>
	<line class="st1" x1="1.1" y1="754" x2="1049.3" y2="754"/>
	<line class="st1" x1="1.1" y1="768.1" x2="1049.3" y2="768.1"/>
	<line class="st1" x1="1.1" y1="782.3" x2="1049.3" y2="782.3"/>
	<line class="st1" x1="1.1" y1="796.5" x2="1049.3" y2="796.5"/>
	<line class="st1" x1="1.1" y1="810.7" x2="1049.3" y2="810.7"/>
	<line class="st1" x1="1.1" y1="824.8" x2="1049.3" y2="824.8"/>
	<line class="st1" x1="1.1" y1="839" x2="1049.3" y2="839"/>
	<line class="st1" x1="1.1" y1="853.2" x2="1049.3" y2="853.2"/>
	<line class="st1" x1="1.1" y1="867.4" x2="1049.3" y2="867.4"/>
	<line class="st1" x1="1.1" y1="883.7" x2="1049.3" y2="883.7"/>
	<line class="st1" x1="1.1" y1="897.8" x2="1049.3" y2="897.8"/>
	<line class="st1" x1="1.1" y1="912" x2="1049.3" y2="912"/>
	<line class="st1" x1="1.1" y1="926.2" x2="1049.3" y2="926.2"/>
	<line class="st1" x1="1.1" y1="940.4" x2="1049.3" y2="940.4"/>
	<line class="st1" x1="1.1" y1="954.5" x2="1049.3" y2="954.5"/>
	<line class="st1" x1="1.1" y1="968.7" x2="1049.3" y2="968.7"/>
	<line class="st1" x1="1.1" y1="982.9" x2="1049.3" y2="982.9"/>
	<line class="st1" x1="1.1" y1="-70.2" x2="1049.3" y2="-70.2"/>
	<line class="st1" x1="1.1" y1="-56" x2="1049.3" y2="-56"/>
	<line class="st1" x1="1.1" y1="-41.8" x2="1049.3" y2="-41.8"/>
	<line class="st1" x1="1.1" y1="-27.6" x2="1049.3" y2="-27.6"/>
	<line class="st1" x1="1.1" y1="-13.5" x2="1049.3" y2="-13.5"/>
	<line class="st1" x1="1.1" y1="0.7" x2="1049.3" y2="0.7"/>
	<line class="st1" x1="1.1" y1="14.9" x2="1049.3" y2="14.9"/>
	<line class="st1" x1="1.1" y1="29.1" x2="1049.3" y2="29.1"/>
	<path class="st6" d="M242.7,231.2l-95.1,44.3l85.9,64.1l95.5-44.5L242.7,231.2z M264.1,307.7l-19,7.4 M245.2,315.1
		c-8,1.1-14.5-0.8-16.4-5.2c-2.6-6.4,5.2-15.7,17.5-20.8c12.3-5.1,24.4-4.1,27,2.3c2,4.8-1.9,11.2-9.2,16.3"/>
	<path class="st6" d="M465.4,90.4l-136.7,62.9l100.5,74.5l136.3-62.7L465.4,90.4z M457.4,166.8c-2.2,1.4-4.6,2.7-7.2,3.8
		c-12.3,5.1-24.4,4.1-27-2.3s5.2-15.7,17.5-20.8c12.3-5.1,24.4-4.1,27,2.3C469.8,154.9,465.4,161.7,457.4,166.8z"/>
	<polygon class="st6" points="428.5,297.3 607.8,214.8 663.6,255.9 484.6,338.6 	"/>
	<polygon class="st6" points="689.7,192.4 777.3,151.9 837.3,196.5 749.5,237 	"/>
	<polygon class="st0" points="494.7,367.5 633.4,303 680.5,338.6 541.5,402.1 	"/>
	<polygon class="st6" points="504.1,381.6 536.5,405.6 536.4,467.1 499.5,439.9 355.3,506.5 233.5,416.2 240.5,413.7 240.2,343.7 
		276.5,326.7 409.9,425.3 	"/>
	<polygon class="st6" points="768.8,475.3 790.2,465.3 848.9,509.1 768.8,545.6 	"/>
	<polygon class="st0" points="662.3,602.4 719.4,575.8 719.5,644.6 	"/>
	<polygon class="st6" points="795.1,540.4 813.2,532.4 870.8,574.8 795.1,609.4 	"/>
	<polygon class="st6" points="208.3,548.6 326,494.1 348.3,510.2 348.3,579.1 355.8,584.5 294.7,612.8 	"/>
	<polygon class="st6" points="136.4,450.1 179.6,430.5 219.6,460 176.8,479.6 	"/>
	<polygon class="st7" points="225.7,436.5 202.2,447.2 202.2,440.9 207.9,438.3 207.9,431.9 213.9,429.2 213.9,422.8 219.6,420.1 
		219.6,414 226,411 	"/>
	<polygon class="st7" points="147.6,353.7 147.6,275.5 233.5,339.6 233.5,416.2 226,411 226,370.1 202.6,352.8 202.6,394.3 	"/>
	<polygon class="st6" points="378.8,197.4 423.5,230 423.5,293.4 326.8,221.6 	"/>
	<polygon class="st7" points="565.5,165.1 565.7,234.2 544.7,243.9 544.7,203.8 523.2,213.9 523.2,253.6 428.5,297.3 429.1,227.8 	
		"/>
	<polygon class="st6" points="401.3,687.8 452.7,663.9 481.8,685.5 481.8,746 	"/>
	<polygon class="st7" points="795.1,540.4 719.4,575.8 719.5,644.6 746.5,631.9 746.5,591.3 768.1,581.3 768.1,621.9 795.1,609.4 	
		"/>
	<polygon class="st7" points="716.5,281.7 716.4,243.3 694.4,227.2 694.4,265.5 689.5,261.7 689.7,192.4 749.5,237 750,306 	"/>
	<polygon class="st7" points="804.7,218.1 804.6,281.1 790.2,287.7 790.2,246.8 768.7,256.8 768.7,297.5 750,306 749.8,243.1 	"/>
	<polygon class="st6" points="850,260.4 804.6,281.1 804.7,226.8 	"/>
	<polygon class="st7" points="680.5,338.6 680.5,408 629.4,431.4 629.4,390.1 607.8,400.1 607.8,441 541.5,471.2 541.5,402.1 	"/>
	<polygon class="st7" points="499.5,439.9 499.5,518 477.2,528.9 477.2,486.8 455.6,496.9 455.6,538.1 429.7,550 429.8,543.2 
		424.6,539.2 424.8,532.9 419.6,529.1 419.6,522.6 414.3,518.7 414.4,511.8 409,507.8 409.1,500.9 403.9,497.2 404,491.1 
		398.1,486.8 	"/>
	<polygon class="st7" points="577.3,641.4 577.3,670.5 553.2,652.5 	"/>
	<polygon class="st7" points="610.8,625.9 610.8,695.1 597.4,685.3 597.4,645 586.7,637.1 	"/>
	<polygon class="st5" points="716.5,286.4 750,311.2 768.7,302.7 768.2,367.7 680.5,408 680.5,338.6 716.5,321.7 	"/>
	<polygon class="st7" points="136.4,450.1 136.4,495.5 207.8,548.4 207.9,541.5 202.6,537.8 202.8,531.6 197.5,528 197.6,521.3 
		192.4,517.7 192.5,510.7 187,506.7 187.2,499.9 182,495.9 182.1,489.9 176.8,486 176.8,479.6 	"/>
	<polygon class="st0" points="586.7,637.1 577.3,641.4 577.3,670.5 597.4,685.3 597.4,645 	"/>
	<polygon class="st6" points="553.2,652.5 530.8,662.8 536.6,667 536.6,673.2 541.6,677 541.6,683.8 547,687.7 547,694.8 
		552.3,698.5 552.3,705.4 557.3,708.8 557.3,715.2 561,717.9 610.8,695.1 	"/>
	<polygon class="st5" points="595.3,588.5 595.3,547.8 615.4,562.6 615.4,603.5 	"/>
	<polygon class="st0" points="746.5,631.9 746.5,591.3 768.1,581.3 768.1,621.9 	"/>
	<polygon class="st0" points="607.8,441 607.8,400.1 629.4,390.1 629.4,431.4 	"/>
	<polygon class="st0" points="523.2,253.6 523.2,213.9 544.7,203.8 544.7,243.9 	"/>
	<polygon class="st0" points="455.6,538.1 455.6,496.9 477.2,486.8 477.2,528.9 	"/>
	<polygon class="st7" points="504.1,381.6 409.9,425.3 409.9,418.1 415.7,415.5 415.7,408.4 421.6,405.9 421.6,399.6 428.5,396.5 
		428.5,390.4 434.4,387.9 434.4,381.5 440.4,378.7 440.4,372.5 445.8,369.5 445.8,363.1 451.5,360.5 451.5,354.4 457.2,351.8 
		457.2,345.4 463.1,342.6 463.1,336.4 468.4,334 484.6,345.8 484.6,367.2 	"/>
	<polygon class="st7" points="413,618.7 413,626.2 355.8,584.5 355.3,506.5 360.8,510.6 360.8,516.6 366.2,520.6 366.2,527.1 
		371.5,531.5 371.5,538.4 376.6,542.1 376.6,548.7 381.7,552.5 381.7,558.9 386.8,562.6 386.8,569.5 392.1,573.2 392.1,581 
		397.2,584.7 397.2,591.9 402.4,595.6 402.4,603.1 407.6,606.9 407.6,614.4 	"/>
	<polygon class="st7" points="626,611.4 626.2,533.9 499.5,439.9 499.5,447.9 584.5,511 584.5,580.5 595.3,588.5 595.3,547.8 
		615.4,562.6 615.4,603.5 	"/>
	<polygon class="st8" points="632.6,608.3 626,611.4 626.2,533.9 876.8,418.3 876.8,425.3 632.6,538.1 	"/>
	<polygon points="762.8,548.3 762.8,478 768.8,475.3 768.8,545.6 	"/>
	<polygon class="st9" points="719.5,644.6 719.4,651.5 870.8,582.1 870.8,574.8 	"/>
	<polygon class="st9" points="616.3,692.4 616.3,699.1 562.3,724.1 562.4,718.9 561,717.9 	"/>
	<polygon class="st7" points="481.8,685.5 481.8,746 540,787.6 540,782.8 535,779.1 535,771.6 529.9,767.9 529.9,760.7 524.7,757 
		524.7,749.2 519.4,745.5 519.4,738.7 514.3,734.8 514.3,728.4 509.1,724.7 509.1,718.1 504,714.1 504,707.1 498.7,703.5 
		498.7,696.5 493.6,692.8 493.6,686.4 488.4,682.5 	"/>
	<polygon class="st8" points="226,411 225.9,421 348.3,510.2 348.3,579.1 355.8,584.5 355.3,506.5 	"/>
	<polygon class="st8" points="329,295.1 329,302.8 240.2,343.7 240.5,413.7 233.5,416.2 233.5,339.6 	"/>
	<polygon class="st8" points="328.6,153.3 328.6,159.8 423.5,230 423.5,293.4 428.5,297.3 429.1,227.8 	"/>
	<polygon class="st8" points="484.6,338.6 484.6,345.8 326.6,229.2 326.8,221.6 	"/>
	<polygon points="837.3,196.5 837.2,202.8 749.8,243.1 749.5,237 	"/>
	<polygon points="850,260.4 790.2,287.7 794.6,290.9 850,265.6 	"/>
	<polygon points="750,306 750,311.2 768.7,302.7 768.7,297.5 	"/>
	<polygon points="716.5,281.7 716.5,286.4 750,311.2 750,306 	"/>
	<polygon points="689.5,261.7 694.4,265.5 690.7,267.4 689.5,266.6 	"/>
	<polygon points="663.6,255.9 663.6,263.3 484.6,345.8 484.6,338.6 	"/>
	<polygon class="st9" points="355.8,584.5 355.8,591.9 481.8,685.5 481.8,677 	"/>
	<polygon class="st8" points="294.7,612.8 294.6,619.7 355.8,591.9 355.8,584.5 	"/>
	<polygon class="st8" points="136.4,495.5 136.4,502 294.6,619.7 294.7,612.8 	"/>
	<polygon class="st7" points="401.3,687.8 401.1,695.1 545.1,799.1 545.2,791.8 	"/>
	<polygon class="st6" points="530.8,662.8 536.6,667 493.6,686.4 488.4,682.5 	"/>
	<polygon points="536.6,673.2 536.6,667 493.6,686.4 493.6,692.8 	"/>
	<polygon class="st6" points="541.6,677 498.7,696.5 493.6,692.8 536.6,673.2 	"/>
	<polygon points="541.6,683.8 541.6,677 498.7,696.5 498.7,703.5 	"/>
	<polygon class="st6" points="547,687.7 504,707.1 498.7,703.5 541.6,683.8 	"/>
	<polygon class="st10" points="547,694.8 504,714.1 504,707.1 547,687.7 	"/>
	<polygon class="st6" points="552.3,698.5 509.1,718.1 504,714.1 547,694.8 	"/>
	<polygon points="552.3,705.4 509.1,724.7 509.1,718.1 552.3,698.5 	"/>
	<polygon class="st6" points="557.3,708.8 514.3,728.4 509.1,724.7 552.3,705.4 	"/>
	<polygon points="514.3,734.8 557.3,715.2 557.3,708.8 514.3,728.4 	"/>
	<polygon class="st6" points="519.4,738.7 562.4,718.9 557.3,715.2 514.3,734.8 	"/>
	<polygon points="519.4,745.5 519.4,738.7 562.4,718.9 562.2,725.9 	"/>
	<polygon class="st0" points="524.7,749.2 567.6,729.7 562.2,725.9 519.4,745.5 	"/>
	<polygon points="524.7,757 524.7,749.2 567.6,729.7 567.5,737.4 	"/>
	<polygon class="st0" points="529.9,760.7 524.7,757 567.5,737.4 572.8,741.1 	"/>
	<polygon points="529.9,767.9 529.9,760.7 572.8,741.1 572.7,748.7 	"/>
	<polygon class="st0" points="535,771.6 529.9,767.9 572.7,748.7 578,752 	"/>
	<polygon points="535,779.1 535,771.6 578,752 578,759.7 	"/>
	<polygon class="st0" points="540,782.8 535,779.1 578,759.7 583.2,763.2 	"/>
	<polygon points="540,787.9 540,782.8 583.2,763.2 583,768.8 	"/>
	<polygon class="st0" points="588.2,772.3 583,768.8 540,787.9 545.2,791.8 	"/>
	<polygon points="588,779.2 588.2,772.3 545.2,791.8 545.1,799.1 	"/>
	<polygon class="st7" points="768.7,298.1 768.2,367.7 815.7,403.2 815.7,394.6 810.2,391.1 810.2,383 804.3,378.8 804.3,370.2 
		799.1,367 799.1,358.9 793.9,355.1 793.9,347.2 788.8,343.4 788.8,335.2 783.5,331 783.5,324.3 778.4,320.6 778.4,313 773.2,309.4 
		773.2,301.9 	"/>
	<polygon class="st8" points="484.6,345.8 489.7,349.7 489.7,357 494.9,360.8 494.7,367.5 541.5,402.1 541.5,471.2 536.4,467.1 
		536.5,405.6 484.6,367.2 	"/>
	<polygon class="st7" points="716.5,281.7 711.1,285.1 711.1,291.6 705.4,294.2 705.4,300.7 699.4,303.4 699.4,309.6 693.6,312.4 
		693.6,318.8 688,321.3 688,327.5 680.7,330.6 680.7,338.6 716.5,321.7 	"/>
	<polygon class="st0" points="489.7,349.7 484.6,345.8 623.9,281.6 628.5,285.2 	"/>
	<polygon points="489.7,357 489.7,349.7 628.5,285.2 628.4,292.5 	"/>
	<polygon class="st0" points="494.9,360.8 489.7,357 628.4,292.5 633.1,296.3 	"/>
	<polygon points="494.7,367.5 494.9,360.8 633.1,296.3 633.4,303 	"/>
	<polygon points="680.7,330.6 680.7,338.6 658.2,322.6 658.2,314.2 	"/>
	<polygon class="st0" points="688,327.5 665.3,310.9 658.2,314.2 680.7,330.6 	"/>
	<polygon points="665.3,304.5 665.3,310.9 688,327.5 688,321.3 	"/>
	<polygon class="st0" points="693.6,318.8 688,321.3 665.3,304.5 670.9,302 	"/>
	<polygon points="693.6,312.4 670.9,295.5 670.9,302 693.6,318.8 	"/>
	<polygon class="st0" points="699.4,309.6 693.6,312.4 670.9,295.5 676.9,292.8 	"/>
	<polygon points="699.4,303.4 699.4,309.6 676.9,292.8 676.9,286.4 	"/>
	<polygon class="st0" points="705.4,300.7 699.4,303.4 676.9,286.4 682.7,283.8 	"/>
	<polygon points="705.4,294.2 705.4,300.7 682.7,283.8 682.7,277.4 	"/>
	<polygon class="st0" points="711.1,291.6 705.4,294.2 682.7,277.4 688.4,274.8 	"/>
	<polygon points="711.1,285.1 711.1,291.6 688.4,274.8 688.2,268.5 	"/>
	<polygon class="st0" points="716.5,281.7 711.1,285.1 688.2,268.5 694.4,265.5 	"/>
	<polygon points="815.7,403.2 815.7,394.6 838.3,385.5 838.3,393 	"/>
	<polygon class="st0" points="810.2,391.1 832.8,381.6 838.3,385.5 815.7,394.6 	"/>
	<polygon points="810.2,383 810.2,391.1 832.8,381.6 832.9,373 	"/>
	<polygon class="st0" points="804.3,378.8 826.9,368.5 832.9,373 810.2,383 	"/>
	<polygon points="804.3,370.2 827.1,360.7 826.9,368.5 804.3,378.8 	"/>
	<polygon class="st0" points="799.1,367 821.7,356.7 827.1,360.7 804.3,370.2 	"/>
	<polygon points="799.1,358.9 821.9,348.9 821.7,356.7 799.1,367 	"/>
	<polygon class="st0" points="793.9,355.1 816.8,345.3 821.9,348.9 799.1,358.9 	"/>
	<polygon points="793.9,347.2 816.8,337.1 816.8,345.3 793.9,355.1 	"/>
	<polygon class="st0" points="788.8,343.4 811.5,333.1 816.8,337.1 793.9,347.2 	"/>
	<polygon points="788.8,335.2 811.4,324.9 811.5,333.1 788.8,343.4 	"/>
	<polygon class="st0" points="783.5,331 806.2,321.1 811.4,324.9 788.8,335.2 	"/>
	<polygon points="783.5,324.3 806.2,314.4 806.2,321.1 783.5,331 	"/>
	<polygon class="st0" points="778.4,320.6 801.3,310.4 806.2,314.4 783.5,324.3 	"/>
	<polygon points="778.4,313 801.2,302.8 801.3,310.4 778.4,320.6 	"/>
	<polygon class="st0" points="773.2,309.4 796,299.1 801.2,302.8 778.4,313 	"/>
	<polygon points="773.2,301.9 796,292 796,299.1 773.2,309.4 	"/>
	<polygon class="st6" points="768.7,297.5 790.2,287.7 796,292 773.2,301.9 	"/>
	<polygon class="st6" points="202.6,394.3 197.1,396.9 219.6,414 226,411 	"/>
	<polygon points="219.6,420.1 197.1,403.3 197.1,396.9 219.6,414 	"/>
	<polygon class="st0" points="213.9,422.8 219.6,420.1 197.1,403.3 191.2,405.9 	"/>
	<polygon points="213.9,429.2 213.9,422.8 191.2,405.9 191.2,412.3 	"/>
	<polygon class="st0" points="207.9,431.9 213.9,429.2 191.2,412.3 185.2,415.1 	"/>
	<polygon points="207.9,438.3 207.9,431.9 185.2,415.1 185.2,421.5 	"/>
	<polygon class="st0" points="202.2,440.9 207.9,438.3 185.2,421.5 179.6,424 	"/>
	<polygon points="179.6,430.5 179.6,424 202.2,440.9 202.2,447.2 	"/>
	<polygon points="219.6,460 219.6,466.5 176.8,486 176.8,479.6 	"/>
	<polygon class="st0" points="182.1,489.9 176.8,486 219.6,466.5 225,470.3 	"/>
	<polygon points="182,495.9 182.1,489.9 225,470.3 225,476.4 	"/>
	<polygon class="st0" points="187.2,499.9 182,495.9 225,476.4 230.2,480.1 	"/>
	<polygon points="187,506.7 187.2,499.9 230.2,480.1 230.2,487.1 	"/>
	<polygon class="st0" points="192.5,510.7 187,506.7 230.2,487.1 235.2,490.9 	"/>
	<polygon points="192.4,517.7 192.5,510.7 235.2,490.9 235.2,498.2 	"/>
	<polygon class="st0" points="197.6,521.3 192.4,517.7 235.2,498.2 240.6,501.8 	"/>
	<polygon points="197.5,528 240.6,508.7 240.6,501.8 197.6,521.3 	"/>
	<polygon class="st0" points="202.8,531.6 245.7,512.1 240.6,508.7 197.5,528 	"/>
	<polygon points="202.6,537.8 245.6,518.5 245.7,512.1 202.8,531.6 	"/>
	<polygon class="st0" points="207.9,541.5 202.6,537.8 245.6,518.5 250.8,521.9 	"/>
	<polygon points="207.8,548.4 207.9,541.5 250.8,521.9 250.8,528.9 	"/>
	<path class="st5" d="M456.5,599.3"/>
	<polygon class="st6" points="355.3,506.5 398.1,486.8 404,491.1 360.8,510.6 	"/>
	<polygon points="360.8,516.6 360.8,510.6 404,491.1 403.9,497.2 	"/>
	<polygon class="st0" points="366.2,520.6 409.1,500.9 403.9,497.2 360.8,516.6 	"/>
	<polygon points="366.2,527.1 366.2,520.6 409.1,500.9 409,507.8 	"/>
	<polygon class="st0" points="371.5,531.5 366.2,527.1 409,507.8 414.4,511.8 	"/>
	<polygon points="371.5,538.4 371.5,531.5 414.4,511.8 414.3,518.7 	"/>
	<polygon class="st0" points="376.6,542.1 371.5,538.4 414.3,518.7 419.6,522.6 	"/>
	<polygon points="376.6,548.7 419.6,529.1 419.6,522.6 376.6,542.1 	"/>
	<polygon class="st0" points="381.7,552.5 376.6,548.7 419.6,529.1 424.8,532.9 	"/>
	<polygon points="381.7,558.9 424.6,539.2 424.8,532.9 381.7,552.5 	"/>
	<polygon class="st0" points="386.8,562.6 381.7,558.9 424.6,539.2 429.8,543.2 	"/>
	<polygon points="386.8,569.5 386.8,562.6 429.8,543.2 429.7,550 	"/>
	<polygon class="st0" points="392.1,573.2 386.8,569.5 429.7,550 435.1,553.8 	"/>
	<polygon points="392.1,581 435,561.4 435.1,553.8 392.1,573.2 	"/>
	<polygon class="st0" points="397.2,584.7 392.1,581 435,561.4 440.4,565.1 	"/>
	<polygon points="397.2,591.9 440.3,572.3 440.4,565.1 397.2,584.7 	"/>
	<polygon class="st0" points="402.4,595.6 397.2,591.9 440.3,572.3 445.5,576 	"/>
	<polygon points="402.4,603.1 402.4,595.6 445.5,576 445.3,583.6 	"/>
	<polygon class="st0" points="407.6,606.9 402.4,603.1 445.3,583.6 450.6,587.3 	"/>
	<polygon points="450.6,594.8 450.6,587.3 407.6,606.9 407.6,614.4 	"/>
	<polygon class="st0" points="456.5,599.3 450.6,594.8 407.6,614.4 413,618.7 	"/>
	<polygon points="456.4,607 456.5,599.3 413,618.7 413,626.2 	"/>
	<polygon points="409.9,425.3 409.9,418.1 370.1,388.7 370.1,395.9 	"/>
	<polygon class="st0" points="415.7,415.5 409.9,418.1 370.1,388.7 376.1,386.2 	"/>
	<polygon points="415.7,408.4 415.7,415.5 376.1,386.2 376.1,379.5 	"/>
	<polygon class="st0" points="421.6,405.9 415.7,408.4 376.1,379.5 381.9,376.7 	"/>
	<polygon points="421.6,399.6 421.6,405.9 381.9,376.7 381.9,370.6 	"/>
	<polygon class="st0" points="428.5,396.5 421.6,399.6 381.9,370.6 388.7,367.5 	"/>
	<polygon points="428.5,390.4 428.5,396.5 388.7,367.5 388.7,361.1 	"/>
	<polygon class="st0" points="434.4,387.9 428.5,390.4 388.7,361.1 394.3,358.5 	"/>
	<polygon points="434.4,381.5 434.4,387.9 394.3,358.5 394.3,352.1 	"/>
	<polygon class="st0" points="440.4,378.7 434.4,381.5 394.3,352.1 400.3,349.3 	"/>
	<polygon points="440.4,372.5 440.4,378.7 400.3,349.3 400.1,343.1 	"/>
	<polygon class="st0" points="445.8,369.5 440.4,372.5 400.1,343.1 406.1,340.3 	"/>
	<polygon points="445.8,363.1 445.8,369.5 406.1,340.3 406.1,333.9 	"/>
	<polygon class="st0" points="451.5,360.5 445.8,363.1 406.1,333.9 411.5,331.5 	"/>
	<polygon points="451.5,354.4 451.5,360.5 411.5,331.5 411.5,325 	"/>
	<polygon class="st0" points="457.2,351.8 451.5,354.4 411.5,325 417.2,322.5 	"/>
	<polygon points="457.2,345.4 457.2,351.8 417.2,322.5 417.2,316.1 	"/>
	<polygon class="st0" points="463.1,342.6 457.2,345.4 417.2,316.1 423.2,313.3 	"/>
	<polygon points="463.1,336.4 463.1,342.6 423.2,313.3 423.2,306.9 	"/>
	<polygon class="st0" points="468.4,334 463.1,336.4 423.2,306.9 428.8,304.5 	"/>
	<g>
		<line class="st4" x1="439.1" y1="158.1" x2="457.6" y2="149.6"/>
		<line class="st4" x1="439.1" y1="163.8" x2="457.6" y2="155.2"/>
		<line class="st4" x1="439.1" y1="169.5" x2="457.6" y2="160.9"/>
		<path class="st4" d="M425.6,151.5c0-10.1,13.5-9.9,13.5,6.2c0,2,0,7.9,0,15.4"/>
		<path class="st4" d="M444.2,142.7c0-10.1,13.5-9.9,13.5,6.2c0,2.2,0,8.7,0,17.1"/>
	</g>
	<path class="st2" d="M434,173.8c0,0-6.3-0.6-8.7-4.5c-3.2-5.3,6.7-13.7,16-17.3c10-4,30.3-7.8,22.9,9.1"/>
	<path class="st2" d="M674.8,474.3"/>
	<path class="st2" d="M674.8,474.2c0,0-0.1,0-0.1,0.1"/>
	<path class="st5" d="M687.6,455.7c-2.6-6.4-14.7-7.4-27-2.3c-12.3,5.1-20.1,14.4-17.5,20.8c1.4,3.3,5.4,5.2,10.6,5.5
		c-1.2-0.2-6.3-1-8.4-4.5c-3.2-5.3,6.7-13.7,16-17.3c10-4,30.2-7.8,22.9,9.1C687.5,463,688.9,459,687.6,455.7z"/>
	<path class="st2" d="M661.2,457.8c-9.2,3.7-19.2,12-16,17.3c2.1,3.5,7.2,4.3,8.4,4.5c4.8,0.3,10.6-0.8,16.5-3.2
		c1.6-0.7,3.1-1.4,4.5-2.2l0.1-0.1c3.8-2.1,7-4.7,9.3-7.3C691.4,450,671.2,453.8,661.2,457.8z"/>
	<path class="st6" d="M838.4,389.4l-0.1,3.6l-22.6,10.2l-47.5-35.6L541.5,471.2l84.6,62.7l250.6-115.5L838.4,389.4z M684.1,466.9
		C684.1,466.9,684.1,466.9,684.1,466.9c-2.3,2.6-5.5,5.1-9.3,7.3l-0.1,0.1c-1.4,0.8-3,1.5-4.5,2.2c-5.9,2.4-11.7,3.5-16.5,3.2
		c0.2,0,0.3,0,0.3,0s-0.1,0-0.3,0c-5.2-0.3-9.2-2.1-10.6-5.5c-2.6-6.4,5.2-15.7,17.5-20.8c12.3-5.1,24.4-4.1,27,2.3
		C688.9,459,687.5,463,684.1,466.9C684.1,466.9,684.1,466.9,684.1,466.9z"/>
	<path class="st6" d="M584.5,580.5V511l-26.8-19.9L430,549.9l5.1,3.9l-0.1,7.6l5.4,3.7l-0.1,7.2l5.1,3.8l-0.1,7.5l5.3,3.7v7.6
		l5.9,4.5l-0.1,7.7L413,626.2l68.8,50.9L626,611.4L584.5,580.5z M511.3,610.8c-12.3,5.1-24.4,4.1-27-2.3s5.2-15.7,17.5-20.8
		c12.3-5.1,24.4-4.1,27,2.3S523.6,605.7,511.3,610.8z"/>
	<path class="st2" d="M495.1,614c0,0-6.3-0.6-8.7-4.5c-3.2-5.3,6.7-13.7,16-17.3c10-4,30.3-7.8,22.9,9.1"/>
	<line class="st2" x1="499.6" y1="599.2" x2="518.1" y2="590.6"/>
	<line class="st2" x1="499.6" y1="604.8" x2="518.1" y2="596.3"/>
	<line class="st2" x1="499.6" y1="610.5" x2="518.1" y2="602"/>
	<path class="st2" d="M486,592.5c0-10.1,13.5-9.9,13.5,6.2c0,2,0,7.9,0,15.4"/>
	<path class="st2" d="M504.4,584.1c0-10.1,13.5-9.9,13.5,6.2c0,2.2,0,8.7,0,17.1"/>
	<line class="st2" x1="656.3" y1="533.8" x2="674.8" y2="525.3"/>
	<line class="st2" x1="656.3" y1="539.5" x2="674.8" y2="530.9"/>
	<path class="st5" d="M661.2,542c-9.2,3.7-19.2,12-16,17.3c2.1,3.5,7.2,4.3,8.4,4.5c4.8,0.3,10.6-0.8,16.5-3.2
		c5.9-2.5,10.8-5.9,14-9.5C691.4,534.1,671.2,538,661.2,542z"/>
	<path d="M687.6,539.8c-2.6-6.4-14.7-7.4-27-2.3c-12.3,5.1-20.1,14.4-17.5,20.8c1.4,3.3,5.4,5.2,10.6,5.5c-1.2-0.2-6.3-1-8.4-4.5
		c-3.2-5.3,6.7-13.7,16-17.3c10-4,30.2-7.8,22.9,9.1C687.5,547.2,688.9,543.1,687.6,539.8z"/>
	<path d="M468,149.9c-2.6-6.4-14.7-7.4-27-2.3c-12.3,5.1-20.1,14.4-17.5,20.8c1.4,3.3,5.4,5.2,10.6,5.5c-1.2-0.2-6.3-1-8.4-4.5
		c-3.2-5.3,6.7-13.7,16-17.3c10-4,30.2-7.8,22.9,9.1C467.9,157.2,469.4,153.2,468,149.9z"/>
	<path d="M273.2,291.4c-2.6-6.4-14.7-7.4-27-2.3c-12.3,5.1-20.1,14.4-17.5,20.8c1.4,3.3,5.4,5.2,10.6,5.5c-1.2-0.2-6.3-1-8.4-4.5
		c-3.2-5.3,6.7-13.7,16-17.3c10-4,30.2-7.8,22.9,9.1C273.2,298.8,274.6,294.7,273.2,291.4z"/>
	<path d="M528.9,590.1c-2.6-6.4-14.7-7.4-27-2.3c-12.3,5.1-20.1,14.4-17.5,20.8c1.4,3.3,5.4,5.2,10.6,5.5c-1.2-0.2-6.3-1-8.4-4.5
		c-3.2-5.3,6.7-13.7,16-17.3c10-4,30.2-7.8,22.9,9.1C528.8,597.4,530.2,593.4,528.9,590.1z"/>
	<path class="st6" d="M704.5,504.9l-71.9,33.2v70.2l130.2-60L704.5,504.9z M684.1,551.1C684.1,551.1,684.1,551.1,684.1,551.1
		c-3.2,3.6-8.1,7-14,9.5c-5.9,2.4-11.7,3.5-16.5,3.2c0.2,0,0.3,0,0.3,0s-0.1,0-0.3,0c-5.2-0.3-9.2-2.1-10.6-5.5
		c-2.6-6.4,5.2-15.7,17.5-20.8c12.3-5.1,24.4-4.1,27,2.3C688.9,543.1,687.5,547.2,684.1,551.1C684.1,551.1,684.1,551.1,684.1,551.1z
		"/>
	<path class="st2" d="M264.1,307.7c-2.4,1.7-5.2,3.2-8.3,4.5c-3.7,1.5-7.3,2.5-10.7,2.9"/>
	<g>
		<line class="st4" x1="243.3" y1="587.1" x2="258.9" y2="598.7"/>
		<line class="st4" x1="243.3" y1="592.8" x2="258.9" y2="604.4"/>
		<line class="st4" x1="243.3" y1="598.5" x2="258.9" y2="610"/>
		<line class="st4" x1="243.3" y1="604.1" x2="258.9" y2="615.7"/>
		<line class="st4" x1="243.3" y1="609.8" x2="258.9" y2="621.4"/>
		<line class="st4" x1="243.3" y1="615.5" x2="258.9" y2="627"/>
		<line class="st4" x1="243.3" y1="621.1" x2="258.9" y2="632.7"/>
		<line class="st4" x1="243.3" y1="626.8" x2="258.9" y2="638.4"/>
		<line class="st4" x1="243.3" y1="632.5" x2="258.9" y2="644"/>
		<line class="st4" x1="243.3" y1="638.2" x2="258.9" y2="649.7"/>
		<line class="st4" x1="243.3" y1="643.8" x2="258.9" y2="655.4"/>
		<line class="st4" x1="243.3" y1="649.5" x2="258.9" y2="661.1"/>
		<path class="st4" d="M272.4,589.2c0-10.1-13.5-9.9-13.5,6.2c0,7.6,0,70.6,0,70.6"/>
		<path class="st4" d="M256.6,578.2c0-10.1-13.5-9.9-13.5,6.2c0,7.6,0,70.6,0,70.6"/>
	</g>
	<g>
		<line class="st4" x1="312.3" y1="488.9" x2="327.9" y2="500.5"/>
		<line class="st4" x1="312.3" y1="494.6" x2="327.9" y2="506.2"/>
		<line class="st4" x1="312.3" y1="500.3" x2="327.9" y2="511.8"/>
		<line class="st4" x1="312.3" y1="505.9" x2="327.9" y2="517.5"/>
		<line class="st4" x1="312.3" y1="511.6" x2="327.9" y2="523.2"/>
		<line class="st4" x1="312.3" y1="517.3" x2="327.9" y2="528.8"/>
		<line class="st4" x1="312.3" y1="523" x2="327.9" y2="534.5"/>
		<line class="st4" x1="312.3" y1="528.6" x2="327.9" y2="540.2"/>
		<line class="st4" x1="312.3" y1="534.3" x2="327.9" y2="545.9"/>
		<line class="st4" x1="312.3" y1="540" x2="327.9" y2="551.5"/>
		<line class="st4" x1="312.3" y1="545.6" x2="327.9" y2="557.2"/>
		<line class="st4" x1="312.3" y1="551.3" x2="327.9" y2="562.9"/>
		<path class="st4" d="M341.4,491c0-10.1-13.5-9.9-13.5,6.2c0,7.6,0,70.6,0,70.6"/>
		<path class="st4" d="M325.7,480c0-10.1-13.5-9.9-13.5,6.2c0,7.6,0,70.6,0,70.6"/>
	</g>
	<path class="st2" d="M835,426.5"/>
	<line class="st2" x1="819.1" y1="452.6" x2="837.6" y2="444.1"/>
	<line class="st2" x1="819.1" y1="526.4" x2="837.6" y2="517.8"/>
	<line class="st2" x1="819.1" y1="600.1" x2="837.6" y2="591.5"/>
	<g>
		<line class="st4" x1="819.1" y1="458.3" x2="837.6" y2="449.8"/>
		<line class="st4" x1="819.1" y1="464" x2="837.6" y2="455.4"/>
		<line class="st4" x1="819.1" y1="469.6" x2="837.6" y2="461.1"/>
		<line class="st4" x1="819.1" y1="475.3" x2="837.6" y2="466.8"/>
		<line class="st4" x1="819.1" y1="481" x2="837.6" y2="472.4"/>
		<line class="st4" x1="819.1" y1="486.7" x2="837.6" y2="478.1"/>
		<line class="st4" x1="819.1" y1="492.3" x2="837.6" y2="483.8"/>
		<line class="st4" x1="819.1" y1="498" x2="837.6" y2="489.5"/>
		<line class="st4" x1="819.1" y1="503.7" x2="837.6" y2="495.1"/>
		<line class="st4" x1="819.1" y1="509.4" x2="837.6" y2="500.8"/>
		<line class="st4" x1="819.1" y1="515" x2="837.6" y2="506.5"/>
		<line class="st4" x1="819.1" y1="520.7" x2="837.6" y2="512.2"/>
		<line class="st4" x1="819.1" y1="532" x2="837.6" y2="523.5"/>
		<line class="st4" x1="819.1" y1="537.7" x2="837.6" y2="529.2"/>
		<line class="st4" x1="819.1" y1="543.4" x2="837.6" y2="534.8"/>
		<line class="st4" x1="819.1" y1="549" x2="837.6" y2="540.5"/>
		<line class="st4" x1="819.1" y1="554.7" x2="837.6" y2="546.2"/>
		<line class="st4" x1="819.1" y1="560.4" x2="837.6" y2="551.8"/>
		<line class="st4" x1="819.1" y1="566.1" x2="837.6" y2="557.5"/>
		<line class="st4" x1="819.1" y1="571.7" x2="837.6" y2="563.2"/>
		<line class="st4" x1="819.1" y1="577.4" x2="837.6" y2="568.8"/>
		<line class="st4" x1="819.1" y1="583.1" x2="837.6" y2="574.5"/>
		<line class="st4" x1="819.1" y1="588.7" x2="837.6" y2="580.2"/>
		<line class="st4" x1="819.1" y1="594.4" x2="837.6" y2="585.9"/>
		<path class="st4" d="M805.6,446c0-10.1,13.5-9.9,13.5,6.2c0,7.6,0,153.1,0,153.1"/>
		<path class="st4" d="M824.2,437.8c0-10.1,13.5-9.9,13.5,6.2c0,7.6,0,152.5,0,152.5"/>
	</g>
	<line class="st2" x1="486.7" y1="209.6" x2="505.2" y2="201.1"/>
	<line class="st2" x1="486.7" y1="215.3" x2="505.2" y2="206.8"/>
	<line class="st2" x1="486.7" y1="221" x2="505.2" y2="212.4"/>
	<line class="st2" x1="486.7" y1="226.7" x2="505.2" y2="218.1"/>
	<line class="st2" x1="486.7" y1="232.3" x2="505.2" y2="223.8"/>
	<line class="st2" x1="486.7" y1="238" x2="505.2" y2="229.5"/>
	<line class="st2" x1="486.7" y1="243.7" x2="505.2" y2="235.1"/>
	<line class="st2" x1="486.7" y1="249.3" x2="505.2" y2="240.8"/>
	<line class="st2" x1="486.7" y1="255" x2="505.2" y2="246.5"/>
	<line class="st2" x1="486.7" y1="260.7" x2="505.2" y2="252.2"/>
	<line class="st2" x1="486.7" y1="266.4" x2="505.2" y2="257.8"/>
	<line class="st2" x1="572.5" y1="395.3" x2="591" y2="386.7"/>
	<line class="st2" x1="572.5" y1="400.9" x2="591" y2="392.4"/>
	<line class="st2" x1="572.5" y1="406.6" x2="591" y2="398.1"/>
	<line class="st2" x1="572.5" y1="412.3" x2="591" y2="403.7"/>
	<line class="st2" x1="572.5" y1="418" x2="591" y2="409.4"/>
	<line class="st2" x1="572.5" y1="423.6" x2="591" y2="415.1"/>
	<line class="st2" x1="572.5" y1="429.3" x2="591" y2="420.8"/>
	<line class="st2" x1="572.5" y1="435" x2="591" y2="426.4"/>
	<line class="st2" x1="572.5" y1="440.7" x2="591" y2="432.1"/>
	<line class="st2" x1="572.5" y1="446.3" x2="591" y2="437.8"/>
	<line class="st2" x1="572.5" y1="452" x2="591" y2="443.5"/>
	<line class="st2" x1="656.3" y1="528.1" x2="674.8" y2="519.6"/>
	<path class="st2" d="M656.3,482.8"/>
	<path class="st2" d="M674.8,508.3"/>
	<path class="st2" d="M656.3,516.8"/>
	<g>
		<line class="st4" x1="244.9" y1="299.5" x2="263.4" y2="290.9"/>
		<line class="st4" x1="245.2" y1="305.4" x2="263.7" y2="296.9"/>
		<line class="st4" x1="245.2" y1="311.1" x2="263.7" y2="302.5"/>
		<path class="st4" d="M231.4,292.5c0-10.1,13.5-9.9,13.5,6.2c0,2,0,8.1,0,15.9"/>
		<path class="st4" d="M250.3,283.8c0-10.1,13.5-9.9,13.5,6.2c0,2.2,0,8.9,0,17.3"/>
		<line class="st4" x1="245.2" y1="349.9" x2="263.7" y2="341.4"/>
		<line class="st4" x1="245.2" y1="344.3" x2="263.7" y2="335.7"/>
		<line class="st4" x1="245.2" y1="355.6" x2="263.7" y2="347.1"/>
		<line class="st4" x1="245.2" y1="361.3" x2="263.7" y2="352.8"/>
		<line class="st4" x1="245.2" y1="367" x2="263.7" y2="358.4"/>
		<line class="st4" x1="245.2" y1="372.6" x2="263.7" y2="364.1"/>
		<path class="st4" d="M244.9,340.5c0,15.1,0,37.3,0,37.3"/>
	</g>
	<path class="st4" d="M263.8,331.9c0,15.2,0,37.4,0,37.4"/>
	<polygon class="st9" points="848.9,509.1 849.5,515.7 616.3,623.4 616.3,692.4 610.8,695.1 610.8,625.9 481.8,685.5 481.8,677 	"/>
	<rect x="371.9" y="760.1" class="st5" width="28" height="33.1"/>
	<polygon class="st0" points="768.7,297.5 768.7,256.8 790.2,246.8 790.2,287.7 	"/>
	<polygon class="st6" points="694.4,265.5 694.4,227.2 716.4,243.3 716.5,281.7 	"/>
	<polygon class="st0" points="202.6,394.3 202.6,352.8 226,370.1 226,411 	"/>
	<polygon points="704.5,504.9 762.8,478 762.5,547.7 	"/>
	<polygon class="st9" points="719.4,651.5 719.5,644.6 662.3,602.4 656.2,605 	"/>
	<g>
		<path class="st11" d="M675.2,518.7c0,12.5,0,26,0,39.7"/>
		<g>
			<line class="st11" x1="656.3" y1="465.8" x2="674.8" y2="457.2"/>
			<line class="st11" x1="656.3" y1="471.5" x2="674.8" y2="462.9"/>
			<line class="st11" x1="656.3" y1="477.1" x2="674.8" y2="468.6"/>
			<path class="st11" d="M642.8,459.1c0-10.1,13.5-9.9,13.5,6.2c0,1.1,0,6.3,0,14.3"/>
			<path class="st11" d="M661.1,450.7c0-10.1,13.5-9.9,13.5,6.2c0,1.2,0,7.5,0,17.3"/>
			<line class="st11" x1="656.3" y1="545.2" x2="674.8" y2="536.6"/>
			<line class="st11" x1="656.3" y1="539.5" x2="674.8" y2="530.9"/>
			<line class="st11" x1="656.3" y1="533.8" x2="674.8" y2="525.3"/>
			<line class="st11" x1="656.3" y1="550.8" x2="674.8" y2="542.3"/>
			<line class="st11" x1="656.3" y1="556.5" x2="674.8" y2="548"/>
			<line class="st11" x1="656.3" y1="562.2" x2="674.8" y2="553.6"/>
			<path class="st11" d="M656.3,527.2c0,11.6,0,24,0,36.6"/>
			<line class="st11" x1="656.3" y1="607.5" x2="674.8" y2="599"/>
			<line class="st11" x1="656.3" y1="613.2" x2="674.8" y2="604.6"/>
			<line class="st11" x1="656.3" y1="618.9" x2="674.8" y2="610.3"/>
			<line class="st11" x1="656.3" y1="624.5" x2="674.8" y2="616"/>
			<line class="st11" x1="656.3" y1="630.2" x2="674.8" y2="621.7"/>
			<line class="st11" x1="656.3" y1="635.9" x2="674.8" y2="627.3"/>
			<line class="st11" x1="656.3" y1="641.5" x2="674.8" y2="633"/>
			<line class="st11" x1="656.3" y1="647.2" x2="674.8" y2="638.7"/>
			<line class="st11" x1="656.3" y1="652.9" x2="674.8" y2="644.3"/>
			<line class="st11" x1="656.3" y1="658.5" x2="674.8" y2="650"/>
			<line class="st11" x1="656.3" y1="664.2" x2="674.8" y2="655.7"/>
			<line class="st11" x1="656.3" y1="669.9" x2="674.8" y2="661.3"/>
			<line class="st11" x1="656.3" y1="675.5" x2="674.8" y2="667"/>
			<line class="st11" x1="656.3" y1="681.2" x2="674.8" y2="672.7"/>
			<path class="st11" d="M656.3,605c0,42.4,0,78.1,0,78.1"/>
			<path class="st11" d="M674.9,596.4c0,42.5,0,78.1,0,78.1"/>
		</g>
	</g>
	<polyline class="st6" points="595.3,588.4 595.3,547.8 615.4,562.6 615.4,603.2 	"/>
</g>
<g id="Calque_3">
</g>
</svg>
