<?xml version="1.0" encoding="utf-8"?>
<!-- Generator: Adobe Illustrator 24.2.3, SVG Export Plug-In . SVG Version: 6.00 Build 0)  -->
<svg version="1.1" xmlns="http://www.w3.org/2000/svg" xmlns:xlink="http://www.w3.org/1999/xlink" x="0px" y="0px"
	 viewBox="0 0 1153.5 565.5" style="enable-background:new 0 0 1153.5 565.5;" xml:space="preserve">
<style type="text/css">
	.st0{fill:#FFFFFF;}
	.st1{font-family:'Montserrat-Bold';}
	.st2{font-size:17px;}
	.st3{font-family:'Montserrat-Light';}
	.st4{letter-spacing:-1;}
	.st5{fill:none;stroke:#FF0000;stroke-width:9;stroke-linecap:round;stroke-miterlimit:10;}
	.st6{fill:#FF0000;}
	.st7{fill:none;stroke:#FF0000;stroke-width:8;stroke-linecap:round;stroke-miterlimit:10;}
	.st8{fill:none;stroke:#FF0000;stroke-width:10;stroke-linecap:round;stroke-miterlimit:10;}
	.st9{fill:#FF0000;stroke:#FF0000;stroke-width:4;stroke-miterlimit:10;}
	.st10{fill:none;stroke:#FF0000;stroke-width:6.3654;stroke-linecap:round;stroke-linejoin:round;stroke-miterlimit:10;}
	.st11{fill:none;stroke:#FF0000;stroke-width:9;stroke-linecap:round;stroke-linejoin:round;stroke-miterlimit:10;}
	.st12{fill:#FF0200;}
	.st13{fill:none;stroke:#FF0000;stroke-width:8;stroke-linecap:round;stroke-linejoin:round;stroke-miterlimit:10;}
	.st14{fill:none;stroke:#FF0000;stroke-width:7;stroke-linecap:round;stroke-miterlimit:10;}
	.st15{fill:none;}
</style>
<g id="Calque_3">
	<text transform="matrix(1 0 0 1 20.9585 419.385)"><tspan x="0" y="0" class="st0 st1 st2">Chouet</tspan><tspan x="63" y="0" class="st0 st1 st2">t</tspan><tspan x="70.4" y="0" class="st0 st1 st2">e </tspan><tspan x="84.5" y="0" class="st0 st3 st2">&gt; </tspan><tspan x="97.5" y="0" class="st0 st3 st2">V</tspan><tspan x="108.7" y="0" class="st0 st3 st2">ision, introspection, sagesse</tspan><tspan x="0" y="20.4" class="st0 st1 st2">Fourmi </tspan><tspan x="66.5" y="20.4" class="st0 st3 st2">&gt; </tspan><tspan x="79.5" y="20.4" class="st0 st3 st2">T</tspan><tspan x="88.1" y="20.4" class="st0 st3 st2">r</tspan><tspan x="94" y="20.4" class="st0 st3 st2">a</tspan><tspan x="103.5" y="20.4" class="st0 st3 st2">v</tspan><tspan x="111.7" y="20.4" class="st0 st3 st2">ail, </tspan><tspan x="138.8" y="20.4" class="st0 st3 st2">c</tspan><tspan x="147.9" y="20.4" class="st0 st3 st2">ollectif, appliquée, in</tspan><tspan x="320.4" y="20.4" class="st0 st3 st2">f</tspan><tspan x="325.3" y="20.4" class="st0 st3 st2">atigable</tspan><tspan x="0" y="40.8" class="st0 st1 st2">C</tspan><tspan x="11.6" y="40.8" class="st0 st1 st2">orbeau </tspan><tspan x="76.9" y="40.8" class="st0 st3 st2">&gt; Sagesse, bon </tspan><tspan x="202.2" y="40.8" class="st0 st3 st2">c</tspan><tspan x="211.3" y="40.8" class="st0 st3 st2">onseil, ingéniosi</tspan><tspan x="342.8" y="40.8" class="st0 st3 st2">t</tspan><tspan x="349.3" y="40.8" class="st0 st3 st2">é</tspan><tspan x="0" y="61.2" class="st0 st1 st2">Cas</tspan><tspan x="30.7" y="61.2" class="st0 st1 st2">t</tspan><tspan x="38" y="61.2" class="st0 st1 st2">or </tspan><tspan x="60.1" y="61.2" class="st0 st3 st2">&gt; Bâtisseur, être d’action.</tspan><tspan x="0" y="81.6" class="st0 st1 st2 st4">T</tspan><tspan x="9.3" y="81.6" class="st0 st1 st2">ortue </tspan><tspan x="60.2" y="81.6" class="st0 st3 st2">&gt; Pro</tspan><tspan x="101.4" y="81.6" class="st0 st3 st2">t</tspan><tspan x="107.9" y="81.6" class="st0 st3 st2">ection, long</tspan><tspan x="205.5" y="81.6" class="st0 st3 st2">é</tspan><tspan x="215.2" y="81.6" class="st0 st3 st2">vi</tspan><tspan x="228.2" y="81.6" class="st0 st3 st2">t</tspan><tspan x="234.7" y="81.6" class="st0 st3 st2">é, </tspan><tspan x="252.7" y="81.6" class="st0 st3 st2">c</tspan><tspan x="261.8" y="81.6" class="st0 st3 st2">onnaissan</tspan><tspan x="345.3" y="81.6" class="st0 st3 st2">c</tspan><tspan x="354.4" y="81.6" class="st0 st3 st2">e</tspan><tspan x="0" y="102" class="st0 st1 st2">Éléphant </tspan><tspan x="83.3" y="102" class="st0 st3 st2">&gt; Sagesse, mémoire, long</tspan><tspan x="292.8" y="102" class="st0 st3 st2">é</tspan><tspan x="302.5" y="102" class="st0 st3 st2">vi</tspan><tspan x="315.5" y="102" class="st0 st3 st2">t</tspan><tspan x="322" y="102" class="st0 st3 st2">é, in</tspan><tspan x="355.7" y="102" class="st0 st3 st2">t</tspan><tspan x="362.2" y="102" class="st0 st3 st2">elligen</tspan><tspan x="418.1" y="102" class="st0 st3 st2">c</tspan><tspan x="427.2" y="102" class="st0 st3 st2">e</tspan></text>
	<text transform="matrix(1 0 0 1 491.3477 419.3848)"><tspan x="0" y="0" class="st0 st1 st2">Ch</tspan><tspan x="23.3" y="0" class="st0 st1 st2">e</tspan><tspan x="33.2" y="0" class="st0 st1 st2">v</tspan><tspan x="42.6" y="0" class="st0 st1 st2">al </tspan><tspan x="62.2" y="0" class="st0 st3 st2">&gt; </tspan><tspan x="75.2" y="0" class="st0 st3 st2">A</tspan><tspan x="87" y="0" class="st0 st3 st2">cc</tspan><tspan x="105.2" y="0" class="st0 st3 st2">ompagnement, puissan</tspan><tspan x="303.6" y="0" class="st0 st3 st2">c</tspan><tspan x="312.7" y="0" class="st0 st3 st2">e</tspan><tspan x="0" y="20.4" class="st0 st1 st2">Perroquet </tspan><tspan x="91.6" y="20.4" class="st0 st3 st2">&gt; </tspan><tspan x="104.6" y="20.4" class="st0 st3 st2">C</tspan><tspan x="116.3" y="20.4" class="st0 st3 st2">ommuni</tspan><tspan x="189" y="20.4" class="st0 st3 st2">c</tspan><tspan x="198" y="20.4" class="st0 st3 st2">ation</tspan><tspan x="0" y="40.8" class="st0 st1 st2">Blaireau </tspan><tspan x="76" y="40.8" class="st0 st3 st2">&gt; </tspan><tspan x="89" y="40.8" class="st0 st3 st2 st4">T</tspan><tspan x="97.2" y="40.8" class="st0 st3 st2">énaci</tspan><tspan x="142.3" y="40.8" class="st0 st3 st2">t</tspan><tspan x="148.8" y="40.8" class="st0 st3 st2">é, opiniâtre</tspan><tspan x="241.8" y="40.8" class="st0 st3 st2">t</tspan><tspan x="248.2" y="40.8" class="st0 st3 st2">é</tspan><tspan x="0" y="61.2" class="st0 st1 st2">Écureuil </tspan><tspan x="75.7" y="61.2" class="st0 st3 st2">&gt; Pr</tspan><tspan x="106.4" y="61.2" class="st0 st3 st2">évo</tspan><tspan x="134.5" y="61.2" class="st0 st3 st2">y</tspan><tspan x="142.8" y="61.2" class="st0 st3 st2">an</tspan><tspan x="163.8" y="61.2" class="st0 st3 st2">c</tspan><tspan x="172.9" y="61.2" class="st0 st3 st2">e, vi</tspan><tspan x="203.9" y="61.2" class="st0 st3 st2">v</tspan><tspan x="212.2" y="61.2" class="st0 st3 st2">aci</tspan><tspan x="236.1" y="61.2" class="st0 st3 st2">t</tspan><tspan x="242.6" y="61.2" class="st0 st3 st2">é, indépendan</tspan><tspan x="362.9" y="61.2" class="st0 st3 st2">c</tspan><tspan x="372" y="61.2" class="st0 st3 st2">e</tspan><tspan x="0" y="81.6" class="st0 st1 st2">Chimpa</tspan><tspan x="68.1" y="81.6" class="st0 st1 st2">n</tspan><tspan x="79.4" y="81.6" class="st0 st1 st2">z</tspan><tspan x="88.8" y="81.6" class="st0 st1 st2">é </tspan><tspan x="102.9" y="81.6" class="st0 st3 st2">&gt; In</tspan><tspan x="132.1" y="81.6" class="st0 st3 st2">t</tspan><tspan x="138.5" y="81.6" class="st0 st3 st2">elligen</tspan><tspan x="194.5" y="81.6" class="st0 st3 st2">c</tspan><tspan x="203.6" y="81.6" class="st0 st3 st2">e, agili</tspan><tspan x="256" y="81.6" class="st0 st3 st2">t</tspan><tspan x="262.5" y="81.6" class="st0 st3 st2">é, ingéniosi</tspan><tspan x="355.5" y="81.6" class="st0 st3 st2">t</tspan><tspan x="362" y="81.6" class="st0 st3 st2">é</tspan><tspan x="0" y="102" class="st0 st1 st2">Papillon </tspan><tspan x="75.8" y="102" class="st0 st3 st2">&gt; Épanouissement</tspan></text>
</g>
<g id="Arrière-plan_xA0_Image_1_">
	<path class="st5" d="M1074.3,72c42.8,0,38.8,44.6,0,44.6"/>
	<path class="st5" d="M1057.5,116.6c-42.8,0-38.8-44.6,0-44.6"/>
	<path class="st6" d="M1080.1,125.3l-12.9-8.1c-0.5-0.3-0.5-0.9,0-1.2l12.9-8.1c0.6-0.4,1.6,0,1.6,0.6v16.2
		C1081.7,125.4,1080.7,125.7,1080.1,125.3z"/>
	<path class="st6" d="M255.9,263.2l12.9,8.1c0.5,0.3,0.5,0.9,0,1.2l-12.9,8.1c-0.6,0.4-1.6,0-1.6-0.6v-16.2
		C254.3,263.1,255.2,262.8,255.9,263.2z"/>
	<path class="st6" d="M1053.6,63.3l12.9,8.1c0.5,0.3,0.5,0.9,0,1.2l-12.9,8.1c-0.6,0.4-1.6,0-1.6-0.6V63.9
		C1052.1,63.3,1053,62.9,1053.6,63.3z"/>
	<path class="st6" d="M283.3,280.6l-12.9-8.1c-0.5-0.3-0.5-0.9,0-1.2l12.9-8.1c0.6-0.4,1.6,0,1.6,0.6V280
		C284.8,280.6,283.9,281,283.3,280.6z"/>
	<line class="st7" x1="228" y1="271.9" x2="262.3" y2="271.9"/>
	<line class="st8" x1="1074.3" y1="234.7" x2="1074.3" y2="297"/>
	<line class="st8" x1="1105.4" y1="265.8" x2="1043.1" y2="265.8"/>
	<line class="st7" x1="276.8" y1="271.9" x2="311" y2="271.9"/>
	<g>
		<path class="st6" d="M23.9,93.4l24.5,15.4c0.9,0.6,0.9,1.7,0,2.2l-24.5,15.5c-1.2,0.8-3,0.1-3-1.1V94.5
			C21,93.3,22.7,92.6,23.9,93.4z"/>
		<path class="st6" d="M58.8,93.4l24.5,15.4c0.9,0.6,0.9,1.7,0,2.2l-24.5,15.5c-1.2,0.8-3,0.1-3-1.1V94.5
			C55.8,93.3,57.6,92.6,58.8,93.4z"/>
		<path class="st6" d="M93.2,93.4l24.5,15.4c0.9,0.6,0.9,1.7,0,2.2l-24.5,15.5c-1.2,0.8-3,0.1-3-1.1V94.5
			C90.3,93.3,92,92.6,93.2,93.4z"/>
	</g>
	<path class="st7" d="M861.2,60.1c-6.6,0-18,0-25.8,0c-14.1,0-13.2,18.7,0,18.7s34.4,0,42.1,0c11.6,0,12,16.6,0,16.6
		c-7.1,0-33.7,0-43.6,0c-15.4,0-14.4,18.7-1,18.7c13.4,0,34.6,0,44.8,0c10.2,0,12,17.8-0.6,17.8s-37.3,0-37.3,0"/>
	<path class="st9" d="M434.1,299.1L434.1,299.1c-2.1,0-3.9-1.7-3.9-3.9v-47c0-2.1,1.7-3.9,3.9-3.9l0,0c2.1,0,3.9,1.7,3.9,3.9v47
		C438,297.4,436.2,299.1,434.1,299.1z"/>
	<path class="st9" d="M471.2,299.1L471.2,299.1c-2.1,0-3.9-1.7-3.9-3.9v-47c0-2.1,1.7-3.9,3.9-3.9h0c2.1,0,3.9,1.7,3.9,3.9v47
		C475,297.4,473.3,299.1,471.2,299.1z"/>
	<path class="st5" d="M378.6,182.1"/>
	<polygon class="st10" points="456,66.3 477.2,63.7 462.5,92.7 474.6,92.7 439.9,143.1 452.7,107.4 439.9,109.6 	"/>
	<path class="st11" d="M307.9,97.7c0,18.8-15.2,34-34,34c-18.8,0-34-15.2-34-34s15.2-34,34-34c9.4,0,17.9,3.8,24.1,10"/>
	<circle class="st11" cx="650.6" cy="104.4" r="35"/>
	<circle class="st12" cx="619.4" cy="119.5" r="15.4"/>
	<circle class="st13" cx="55.7" cy="265.3" r="24.2"/>
	<circle class="st13" cx="79.9" cy="265.8" r="24.2"/>
</g>
<g id="Calque_5_copie_15_xA0_Image_1_">
	<g>
		<line class="st14" x1="890.5" y1="233.1" x2="814.1" y2="291.4"/>
		<path class="st14" d="M886.4,245.5c-4-5.2-8.2-10.8-12.9-17c-8.5-11.2-22.9,0.8-14.9,11.3c8,10.5,12.6,16.6,17.3,22.8
			c7,9.2-6,19.6-13.3,10.1c-4.3-5.6-12.2-16.1-18.1-23.9c-9.3-12.3-23.6-0.2-15.5,10.5c8.1,10.7,12.7,16.8,18.9,24.9
			c6.2,8.1-6.9,20.3-14.5,10.3c-7.6-10-13.6-17.9-13.6-17.9"/>
	</g>
	<g>
		<path class="st7" d="M603.9,266.6c0,0,17.9-37.5,40.1,0c22.3,37.7,41.4-0.4,41.4-0.4"/>
		<path class="st7" d="M603.9,266.5c0,0,17.3,36.3,40.1,0c22.8-36.3,41.4-0.3,41.4-0.3"/>
	</g>
	<rect x="-7.2" y="148.6" class="st15" width="145.8" height="41.8"/>
	<text transform="matrix(1 0 0 1 13.7146 161.1718)"><tspan x="0" y="0" class="st0 st3 st2 st4">T</tspan><tspan x="8.2" y="0" class="st0 st3 st2">ournée </tspan><tspan x="71.9" y="0" class="st0 st3 st2">v</tspan><tspan x="80" y="0" class="st0 st3 st2">ers </tspan><tspan x="23.2" y="20.4" class="st0 st3 st2">l’</tspan><tspan x="31.3" y="20.4" class="st0 st3 st2">a</tspan><tspan x="40.7" y="20.4" class="st0 st3 st2">v</tspan><tspan x="48.9" y="20.4" class="st0 st3 st2">enir</tspan></text>
	<rect x="196.2" y="161.1" class="st15" width="145.8" height="41.8"/>
	<text transform="matrix(1 0 0 1 227.4751 173.7524)"><tspan x="0" y="0" class="st0 st3 st2">Ou</tspan><tspan x="24.8" y="0" class="st0 st3 st2">v</tspan><tspan x="33" y="0" class="st0 st3 st2">erture</tspan></text>
	<rect x="385.7" y="161.1" class="st15" width="145.8" height="41.8"/>
	<text transform="matrix(1 0 0 1 426.6383 173.7514)" class="st0 st3 st2">énergie</text>
	<rect x="577.6" y="161.1" class="st15" width="145.8" height="41.8"/>
	<text transform="matrix(1 0 0 1 610.3173 173.7524)"><tspan x="0" y="0" class="st0 st3 st2">Long</tspan><tspan x="41.3" y="0" class="st0 st3 st2">é</tspan><tspan x="51" y="0" class="st0 st3 st2">vi</tspan><tspan x="64" y="0" class="st0 st3 st2">t</tspan><tspan x="70.5" y="0" class="st0 st3 st2">é</tspan></text>
	<rect x="785.2" y="161.1" class="st15" width="145.8" height="41.8"/>
	<text transform="matrix(1 0 0 1 807.6745 173.7524)"><tspan x="0" y="0" class="st0 st3 st2">Mou</tspan><tspan x="37.2" y="0" class="st0 st3 st2">v</tspan><tspan x="45.3" y="0" class="st0 st3 st2">ement</tspan></text>
	<rect x="993.9" y="161.1" class="st15" width="145.8" height="41.8"/>
	<text transform="matrix(1 0 0 1 1026.1953 173.7524)" class="st0 st3 st2">échanges</text>
	<rect x="-7.2" y="321.7" class="st15" width="145.8" height="41.8"/>
	<text transform="matrix(1 0 0 1 16.5535 334.2996)"><tspan x="0" y="0" class="st0 st3 st2">In</tspan><tspan x="16.1" y="0" class="st0 st3 st2">t</tspan><tspan x="22.6" y="0" class="st0 st3 st2">é</tspan><tspan x="32.6" y="0" class="st0 st3 st2">r</tspan><tspan x="38.5" y="0" class="st0 st3 st2">actions</tspan></text>
	<rect x="196.2" y="321.7" class="st15" width="145.8" height="41.8"/>
	<text transform="matrix(1 0 0 1 224.5596 334.2996)"><tspan x="0" y="0" class="st0 st3 st2">C</tspan><tspan x="11.6" y="0" class="st0 st3 st2">onn</tspan><tspan x="44.4" y="0" class="st0 st3 st2">e</tspan><tspan x="53.9" y="0" class="st0 st3 st2">xion</tspan></text>
	<rect x="380" y="321.7" class="st15" width="145.8" height="41.8"/>
	<text transform="matrix(1 0 0 1 427.9734 334.2996)" class="st0 st3 st2">Pause</text>
	<rect x="572" y="321.7" class="st15" width="145.8" height="41.8"/>
	<text transform="matrix(1 0 0 1 623.7896 334.2996)" class="st0 st3 st2">Liens</text>
	<rect x="778.1" y="321.7" class="st15" width="145.8" height="41.8"/>
	<text transform="matrix(1 0 0 1 816.1427 334.2996)"><tspan x="0" y="0" class="st0 st3 st2 st4">T</tspan><tspan x="8.2" y="0" class="st0 st3 st2">enaci</tspan><tspan x="53.3" y="0" class="st0 st3 st2">t</tspan><tspan x="59.8" y="0" class="st0 st3 st2">é</tspan></text>
	<rect x="989.2" y="321.7" class="st15" width="170" height="41.8"/>
	<text transform="matrix(1 0 0 1 999.8722 334.2996)"><tspan x="0" y="0" class="st0 st3 st2">C</tspan><tspan x="11.6" y="0" class="st0 st3 st2">omplémentari</tspan><tspan x="132.3" y="0" class="st0 st3 st2">t</tspan><tspan x="138.8" y="0" class="st0 st3 st2">é</tspan></text>
</g>
</svg>
