<?xml version="1.0" encoding="utf-8"?>
<!-- Generator: Adobe Illustrator 24.2.3, SVG Export Plug-In . SVG Version: 6.00 Build 0)  -->
<svg version="1.1" id="Calque_1" xmlns="http://www.w3.org/2000/svg" xmlns:xlink="http://www.w3.org/1999/xlink" x="0px" y="0px"
	 viewBox="0 0 7185.7 4442.1" style="enable-background:new 0 0 7185.7 4442.1;" xml:space="preserve">
<style type="text/css">
	.st0{fill:#FFFFFF;}
	.st1{fill:#0000FF;}
</style>
<rect x="0" y="-2.7" width="7185.7" height="4391.3"/>
<g>
	<path class="st0" d="M4883.5,1668.9v-0.5h-18h-179.7h-368.3V2612h548c383.9,0,584.1-166.7,584.1-487.3
		C5449.5,1829.6,5255.4,1673.8,4883.5,1668.9z M4685.7,2438.8h-168.1v-602.4h168.1V2438.8z M4883.5,2438.3v-601.4
		c228.9,5,348.5,104,348.5,291.7C5232,2327.6,5112.4,2433,4883.5,2438.3z"/>
	<rect x="5418.1" y="2465" class="st0" width="147.1" height="147.1"/>
</g>
<g>
	<path class="st1" d="M4026.4,1719.5c18.5-7.4,25.3-18.5,19.8-32.4c-5.2-13-17.5-16-36.1-8.6l-26.4,10.5l16.3,41L4026.4,1719.5z
		 M4013,1685.8c11.6-4.6,19.4-2.7,22.7,5.7c3.5,8.9-0.7,15.9-12.3,20.5l-16.8,6.7l-10.4-26.2L4013,1685.8z"/>
	<path class="st1" d="M4060.4,1668.4l-1.2,44.3l10.3,0.3l1.2-44.3L4060.4,1668.4z"/>
	<path class="st1" d="M4102.3,1721.8c18.1,8.4,30.8,5.7,37.1-7.9c5.9-12.7-0.5-23.7-18.6-32.1l-25.8-12l-18.6,40L4102.3,1721.8z
		 M4117.6,1688.9c11.3,5.3,15.3,12.2,11.5,20.4c-4,8.7-12,10.4-23.4,5.2l-16.4-7.6l11.8-25.6L4117.6,1688.9z"/>
	<path class="st1" d="M4179.5,1732.3l-38,22.8l5.3,8.8l38-22.8L4179.5,1732.3z"/>
	<path class="st1" d="M4186.7,1758.6l3.9,21.3l-35.3,6.5l1.9,10.3l35.3-6.5l3.9,21.3l8.3-1.5l-9.7-52.9L4186.7,1758.6z"/>
	<path class="st1" d="M4162.1,1840.3c-7.6,3.9-14.9,10.4-20.4,18.8c-11.1,16.9-12.6,28.6-4.4,34c7.5,4.9,16.3-1.1,27.2-16.4
		c6.8-9.5,10.7-13.3,13.7-11.3c3,2,1.9,6.3-3.8,15.2c-5.8,8.9-11.7,14.2-18.6,17.7l5.6,7.2c7.5-4.4,14-10.6,20.1-19.9
		c8.9-13.7,9.6-23.5,1.9-28.6c-7.1-4.7-16,1-27.4,16.7c-6.7,9.3-10.2,12.5-12.9,10.7c-3.6-2.4-1.3-9.4,5.2-19.4
		c5-7.7,11.4-13.4,18.8-17.1L4162.1,1840.3z"/>
	<path class="st1" d="M4140.9,1917.9l-19.7,9l-14.9-32.7l-9.6,4.4l14.9,32.7l-19.7,9l3.5,7.7l48.9-22.3L4140.9,1917.9z"/>
	<path class="st1" d="M4073,1926.8c1.6-12.2-5.6-22.1-23.6-24.4s-27.5,5.4-29.1,17.5l-3.2,24.8l10.1,1.3l2.9-22.3
		c1.1-8.3,6.8-14.4,18.1-12.9c11.3,1.5,15.3,8.9,14.2,17.2l-2.9,22.3l10.2,1.3L4073,1926.8z"/>
	<path class="st1" d="M3997,1880c-14.8-13.4-27.7-14.6-37.8-3.5c-9.4,10.4-6.6,22.8,8.2,36.2l21.1,19.1l29.6-32.7L3997,1880z
		 M3972.7,1906.9c-9.3-8.4-11-16.2-5-22.9c6.4-7.1,14.6-6.4,23.8,2l13.4,12.1l-18.9,20.9L3972.7,1906.9z"/>
	<path class="st1" d="M3936.2,1872.2l40.3-18.5l-4.3-9.3l-40.3,18.5L3936.2,1872.2z"/>
	<path class="st1" d="M3967.4,1811c-0.4-18.8-9.8-30.4-24.3-30c-14.5,0.3-24,12.3-23.5,31.1c0.4,18.9,10.4,30.5,24.9,30.2
		C3959.1,1842,3967.9,1829.9,3967.4,1811z M3959.3,1811.2c0.3,12.3-5.5,20.1-15,20.2c-9.9,0.3-16.8-7.2-17.1-19.5
		c-0.3-12.1,6.3-19.9,16.2-20.1C3952.9,1791.6,3959.1,1799.1,3959.3,1811.2z"/>
	<path class="st1" d="M3958.8,1749.5l6.5,4.9l18.3-24.1l-6.4-4.9L3958.8,1749.5z"/>
</g>
</svg>
