<?xml version="1.0" encoding="utf-8"?>
<!-- Generator: Adobe Illustrator 24.2.3, SVG Export Plug-In . SVG Version: 6.00 Build 0)  -->
<svg version="1.1" id="Calque_1" xmlns="http://www.w3.org/2000/svg" xmlns:xlink="http://www.w3.org/1999/xlink" x="0px" y="0px"
	 viewBox="0 0 1096.1 449.3" style="enable-background:new 0 0 1096.1 449.3;" xml:space="preserve">
<style type="text/css">
	.st0{fill:none;}
	.st1{font-family:'Ortica-Light';}
	.st2{font-size:97.4722px;}
	.st3{letter-spacing:19;}
	.st4{font-family:'Messapia-Bold';}
	.st5{font-size:243.6805px;}
	.st6{letter-spacing:-5.6;}
</style>
<rect x="520.1" y="288.3" class="st0" width="576" height="112.6"/>
<text transform="matrix(1 0 0 1 520.1445 364.333)" class="st1 st2 st3">Studio</text>
<rect x="157.6" y="79.3" class="st0" width="555.7" height="227.7"/>
<text transform="matrix(0.9 0 0 1 157.5938 262.0161)" class="st4 st5 st6">DID</text>
<g>
	<path d="M729.2,197.2c-5.4,0-8.9-2.8-8.9-8.2c0-5.4,3.5-8.2,8.9-8.2c5.4,0,8.9,2.8,8.9,8.2C738.1,194.3,734.6,197.2,729.2,197.2z
		 M720.7,205.8v50.2h16.9v-50.2H720.7z"/>
	<path d="M785.5,259.7c-14,0-24.5-9.3-24.5-21.4v-24.4h-12.8v-12.5h13.4l1.8-14.3h14.6v14.3h25.9v12.5h-26v22.4
		c0,7.5,3.3,10.8,11.2,10.8c4.6,0,11.4-1.8,15.2-3v12.7C799.1,258.5,791,259.7,785.5,259.7z"/>
</g>
<rect x="824.9" y="243.6" width="16" height="16"/>
</svg>
