<?xml version="1.0" encoding="utf-8"?>
<!-- Generator: Adobe Illustrator 24.2.3, SVG Export Plug-In . SVG Version: 6.00 Build 0)  -->
<svg version="1.1" id="Capa_1" xmlns="http://www.w3.org/2000/svg" xmlns:xlink="http://www.w3.org/1999/xlink" x="0px" y="0px"
	 viewBox="0 0 508 508" style="enable-background:new 0 0 508 508;" xml:space="preserve">
<g>
	<g>
		<path d="M321.2,0L20.5,300.7l185,185L506.2,185L321.2,0z M327.9,29.9l147,147h-159L327.9,29.9z M197.4,454.4l-147-147l147-12.1
			V454.4z M53.6,290.7L311.2,33.1l-19.5,238.1L53.6,290.7z M213.7,454.4V294l93.2-7.6l7.6-93.2h160.4L213.7,454.4z"/>
	</g>
</g>
<g>
	<g>
		<rect x="197.4" y="176.8" transform="matrix(0.7071 -0.7071 0.7071 0.7071 -70.5659 199.5685)" width="16.4" height="16.4"/>
	</g>
</g>
<g>
	<g>
		<rect x="220.5" y="153.7" transform="matrix(0.7071 -0.7071 0.7071 0.7071 -47.4832 209.1203)" width="16.4" height="16.4"/>
	</g>
</g>
<g>
	<g>
		<rect x="174.3" y="200" transform="matrix(0.7071 -0.7071 0.7071 0.7071 -93.7356 190.0289)" width="16.4" height="16.4"/>
	</g>
</g>
<g>
	<g>
		<rect x="46.5" y="420.4" transform="matrix(0.7071 -0.7071 0.7071 0.7071 -279.2553 182.9504)" width="69.4" height="16.4"/>
	</g>
</g>
<g>
	<g>
		<rect x="-0.9" y="408.2" transform="matrix(0.7071 -0.7071 0.7071 0.7071 -286.2379 141.7777)" width="57.8" height="16.4"/>
	</g>
</g>
<g>
	<g>
		<rect x="64.5" y="473.6" transform="matrix(0.7071 -0.7071 0.7071 0.7071 -313.329 207.1866)" width="57.8" height="16.4"/>
	</g>
</g>
</svg>
