<?xml version="1.0" encoding="utf-8"?>
<!-- Generator: Adobe Illustrator 24.2.3, SVG Export Plug-In . SVG Version: 6.00 Build 0)  -->
<svg version="1.1" id="Calque_1" xmlns="http://www.w3.org/2000/svg" xmlns:xlink="http://www.w3.org/1999/xlink" x="0px" y="0px"
	 viewBox="0 0 512 512" style="enable-background:new 0 0 512 512;" xml:space="preserve">
<style type="text/css">
	.st0{fill:#FFFFFF;}
</style>
<path class="st0" d="M236.4,367.9c-3.3,3.3-3.3,8.5,0,11.8c3.3,3.3,8.5,3.3,11.8,0c3.3-3.3,3.3-8.5,0-11.8
	C244.9,364.7,239.6,364.7,236.4,367.9z"/>
<path class="st0" d="M450.1,353.5l-63.3-53.9c-0.3-0.3-0.6-0.5-0.9-0.7c-16.6-10.6-37.9-8.3-51.8,5.7l-34.5,34.5
	c-2.4,2.4-5.9,3.1-9.1,1.8c-38.9-16.1-70.9-40.3-95.1-72.1c-18.4-24.2-25.1-43.4-25.9-46.1c-0.1-0.6-0.3-1.2-0.5-1.8
	c-1.3-3.2-0.6-6.7,1.8-9.1l34.5-34.5c13.9-13.9,16.3-35.3,5.7-51.8c-0.1-0.2-0.2-0.3-0.3-0.4L165,61.7
	c-14.5-22.3-45.8-25.7-64.6-6.9l-6.9,6.9l0,0L68.8,86.4C39.4,115.8,34.6,160,54.9,214.2c17.4,46.4,52.3,97.3,98.1,143.1
	c46.9,46.9,99.1,82.4,147,99.9c47.3,17.3,97.8,19.4,133.5-16.3l23.3-23.3C475.4,399,472.1,367.9,450.1,353.5z M376.5,312.8
	l63.3,53.8c0.3,0.3,0.6,0.5,0.9,0.7c13.5,8.6,15.6,27.5,4.3,38.8l-1.8,1.8l-107.9-80.8l10.5-10.5
	C354.1,308.3,366.6,306.8,376.5,312.8z M151,70.9c0.1,0.2,0.2,0.3,0.3,0.4l45.7,63.5c6.2,9.9,4.8,22.6-3.5,30.9l-10.2,10.2
	l-73-107.4l1.9-1.9C123.6,55.3,142.4,57.3,151,70.9z M305.7,441.6c-45.6-16.7-95.7-50.8-141-96c-44.2-44.2-77.7-92.9-94.3-137.2
	c-12.4-33.3-20.8-79.3,10.2-110.2l17.7-17.7l72.9,107.3l-12.3,12.3c-7,7-9.2,17.3-5.7,26.5c2.7,10.8,14.8,33.2,26.9,49.8
	c18,24.3,50.6,57.9,103.9,79.9c9.3,3.9,20.1,1.8,27.3-5.4l12.1-12.1l107.9,80.8l-9.7,9.6C388.5,462.4,340.3,454.3,305.7,441.6z"/>
<path class="st0" d="M220.7,348c-8.8-7.8-24-21-32.1-29.3c-19.7-20.2-40.3-44.7-52.6-62.4c-2.6-3.8-7.8-4.8-11.6-2.1
	c-3.8,2.6-4.8,7.8-2.1,11.6c15.5,22.3,38.2,48,54.4,64.5c8.5,8.8,23.8,22.1,33,30.2c3.4,3,8.8,2.7,11.8-0.8
	C224.5,356.4,224.2,351.1,220.7,348z"/>
</svg>
