<?xml version="1.0" encoding="utf-8"?>
<!-- Generator: Adobe Illustrator 24.2.3, SVG Export Plug-In . SVG Version: 6.00 Build 0)  -->
<svg version="1.1" id="Calque_1" xmlns="http://www.w3.org/2000/svg" xmlns:xlink="http://www.w3.org/1999/xlink" x="0px" y="0px"
	 viewBox="0 0 117.8 96.6" style="enable-background:new 0 0 117.8 96.6;" xml:space="preserve">
<style type="text/css">
	.st0{fill:#6D6D6D;}
</style>
<path class="st0" d="M29.9,10c3.1,0.6,6.2,0.9,9.3,0.9c1.8,0,3.6-0.2,5.4-0.7c0.3-0.1,0.5-0.2,0.6-0.6c0.1-0.7,0.2-1.5,0.3-2.2
	c0.2-1.1,1.1-1.7,2.2-1.5c1,0.2,1.7,1.1,1.5,2.1C49.1,8.5,49,9,48.9,9.6c-0.1,0.4,0,0.5,0.4,0.6c1.6,0.3,3.2,0.6,4.9,0.6
	c3.7,0.2,7.4,0.1,11-0.7c0.1,0,0.2-0.1,0.4-0.1c-0.1-0.7-0.2-1.3-0.3-2c-0.2-1.1,0.5-2,1.5-2.2c1.1-0.2,2,0.4,2.2,1.6
	c0.1,0.7,0.3,1.4,0.3,2.1c0,0.4,0.2,0.5,0.5,0.6c1.4,0.4,2.8,0.6,4.3,0.7c3.3,0.2,6.6-0.1,9.9-0.7c0.1,0,0.3-0.1,0.4-0.1
	c0-0.4-0.2-0.6-0.3-0.9C83.6,8,84,7,85,6.5c1-0.5,2-0.1,2.5,1c1.2,2.5,2.3,5.1,3.5,7.6c1.1,2.5,2.3,5,3.4,7.5c0.2,0.5,0.3,1,0.3,1.6
	c0,6.2,0,12.5,0,18.7c0,14.3,0,28.6,0,42.8c0,1.1-0.4,1.8-1.3,2.4c-4,2.7-8.5,4.1-13.4,3.8c-3.5-0.2-6.6-1.4-9.6-3.2
	c-0.1-0.1-0.2-0.1-0.3-0.2c-5.8,4.6-20.4,4.5-26,0c-1.1,0.6-2.1,1.2-3.3,1.7c-6.8,2.9-13.3,1.9-19.5-1.9c-0.2-0.1-0.4-0.2-0.5-0.4
	c-0.9-0.5-1.3-1.3-1.3-2.4c0-9.7,0-19.4,0-29.1c0-10.9,0-21.8,0-32.7c0-0.5,0.1-0.9,0.3-1.4c2.3-5.1,4.6-10.2,7-15.3
	c0.5-1.1,1.5-1.5,2.6-1.1c1,0.4,1.3,1.5,0.8,2.6C30.2,9.3,30.1,9.6,29.9,10z M46.3,28.5c0,0.3,0,0.5,0,0.7c0,3.1,0,6.1,0,9.2
	c0,7.5,0,14.9,0,22.4c0,7.9,0,15.9,0,23.8c0,0.9,0.3,1.3,1,1.7c2.5,1.4,5.1,1.9,7.9,2.1c2.8,0.2,5.5,0.1,8.2-0.6
	c1.5-0.4,3-0.9,4.3-1.8c0.3-0.2,0.5-0.5,0.5-0.9c0-0.8,0-1.6,0-2.4c0-7.9,0-15.8,0-23.7c0-9.9,0-19.7,0-29.6c0-0.2,0.1-0.5-0.1-0.7
	C60.8,30.7,53.6,30.7,46.3,28.5z M23.4,27.1c0,0.3,0,0.5,0,0.7c0,4.5,0,9.1,0,13.6c0,6.2,0,12.3,0,18.4c0,7.8,0,15.6,0,23.4
	c0,2.5,0,2.5,2.2,3.5c5.6,2.7,11.1,2.3,16.4-0.9c0.4-0.3,0.6-0.6,0.6-1.1c0-5,0-9.9,0-14.9c0-13.7,0-27.4,0-41.1
	c0-0.2,0.1-0.4-0.1-0.6C33.2,29.3,30.4,29.1,23.4,27.1z M71.9,28.1c0,0.2,0,0.4,0,0.5c0,15.6,0,31.3,0,46.9c0,3.1,0,6.2,0,9.3
	c0,0.3,0,0.5,0.3,0.7c2.5,1.6,5.2,2.6,8.2,2.8c3.7,0.3,7-0.7,10.1-2.6c0.4-0.2,0.6-0.5,0.6-1c0-0.7,0-1.4,0-2c0-7.8,0-15.7,0-23.5
	c0-10.5,0-21,0-31.5c0-0.2,0.1-0.4-0.1-0.6C84.7,29.4,78.3,29.1,71.9,28.1z M48.3,13.8c0,0.1-0.1,0.2-0.1,0.3
	c-0.5,3.3-1.1,6.7-1.6,10c-0.1,0.5,0.1,0.6,0.5,0.7c6.7,2.1,13.4,2.1,20.1,0c0.6-0.2,0.7-0.4,0.6-1c-0.4-2.6-0.8-5.1-1.2-7.7
	c-0.1-0.8-0.3-1.6-0.4-2.4C60.2,14.9,54.2,14.9,48.3,13.8z M44.4,14.1c-5.4,1.1-10.8,0.5-16.1-0.5c-1.5,3.2-2.9,6.4-4.4,9.6
	c0.3,0.2,0.5,0.3,0.8,0.4c2.5,1,5,1.4,7.7,1.5c3.3,0.2,6.6-0.1,9.9-0.7c0.4-0.1,0.5-0.2,0.6-0.6c0.2-1.1,0.3-2.2,0.5-3.2
	C43.7,18.4,44.1,16.3,44.4,14.1z M70,14.1c0.5,3.3,1.1,6.4,1.5,9.6c0.1,0.5,0.3,0.6,0.7,0.7c1.8,0.3,3.6,0.5,5.4,0.6
	c3.2,0.2,6.4,0.1,9.5-0.6c1.1-0.3,2.2-0.7,3.3-1.2c0-0.1,0-0.2,0-0.2c-1.4-3-2.8-6.1-4.1-9.1c-0.2-0.3-0.3-0.3-0.6-0.2
	c-2.6,0.5-5.3,0.9-8,1C75.1,14.7,72.6,14.6,70,14.1z"/>
</svg>
